<?xml version="1.0" encoding="UTF-8"?>
<svg id="Layer_1" data-name="Layer 1" xmlns="http://www.w3.org/2000/svg" viewBox="0 0 1920 1080">
  <defs>
    <style>
      .cls-1 {
        stroke: #152127;
        stroke-miterlimit: 10;
      }

      .cls-1, .cls-2 {
        fill: none;
      }

      .cls-2 {
        stroke: #172b34;
        stroke-linecap: round;
        stroke-linejoin: round;
        stroke-width: .5px;
      }

      .cls-3 {
        fill: #2e57a7;
      }

      .cls-4 {
        fill: #fac2b9;
        isolation: isolate;
        opacity: .3;
      }

      .cls-5 {
        fill: #152127;
      }

      .cls-6 {
        fill: #5a79bc;
      }

      .cls-7 {
        opacity: .1;
      }

      .cls-8 {
        opacity: .48;
      }

      .cls-9 {
        fill: #f05359;
      }
    </style>
  </defs>
  <g id="Group_2412" data-name="Group 2412">
    <path id="Path_2969" data-name="Path 2969" class="cls-4" d="m-159.27,180.14l-416.97,514.92s77.56,222.76,167.04,240.88c89.48,18.12,441.65-11.39,590.67-117.12,149.01-105.73-41.37-396.25-41.37-396.25L-159.27,180.14Z"/>
    <g id="Group_2343" data-name="Group 2343" class="cls-7">
      <g id="Group_2324" data-name="Group 2324" class="cls-8">
        <path id="Path_2981" data-name="Path 2981" class="cls-2" d="m238.44,1093.15c0,25.57-21.34,46.31-47.66,46.31s-47.66-20.73-47.66-46.31,21.33-46.31,47.66-46.31,47.66,20.73,47.66,46.31Z"/>
        <path id="Path_3000" data-name="Path 3000" class="cls-9" d="m621.94,847.03h0c0-16.01,13.35-28.98,29.83-28.98h34.54c16.47,0,29.83,12.98,29.83,28.98s-13.36,28.98-29.83,28.98h-34.53c-16.47,0-29.83-12.98-29.83-28.98"/>
        <path id="Path_3005" data-name="Path 3005" class="cls-6" d="m1604.31,944.93c0,48.89-40.79,88.52-91.11,88.52s-91.11-39.63-91.11-88.52,40.79-88.52,91.11-88.52,91.11,39.63,91.11,88.52"/>
        <path id="Path_3013" data-name="Path 3013" class="cls-5" d="m1924.14,770.77c-4.56-.13-8.15-3.93-8.02-8.49.13-4.56,3.93-8.15,8.49-8.02,4.47.13,8.03,3.79,8.03,8.26-.07,4.63-3.87,8.32-8.5,8.26"/>
        <path id="Path_3014" data-name="Path 3014" class="cls-5" d="m1924.14,810.23c-4.56-.13-8.15-3.93-8.02-8.49.13-4.56,3.93-8.15,8.49-8.02,4.47.13,8.03,3.79,8.03,8.26-.07,4.63-3.87,8.32-8.5,8.26"/>
        <path id="Path_3015" data-name="Path 3015" class="cls-5" d="m1924.14,849.68c-4.56-.13-8.15-3.93-8.02-8.49.13-4.56,3.93-8.15,8.49-8.02,4.47.13,8.03,3.79,8.03,8.26-.07,4.63-3.87,8.32-8.5,8.26"/>
        <path id="Path_3016" data-name="Path 3016" class="cls-5" d="m1924.14,889.13c-4.56-.13-8.15-3.93-8.02-8.49.13-4.56,3.93-8.15,8.49-8.02,4.47.13,8.03,3.79,8.03,8.26-.07,4.63-3.87,8.32-8.5,8.26"/>
        <path id="Path_3017" data-name="Path 3017" class="cls-5" d="m1924.14,928.58c-4.56-.13-8.15-3.93-8.02-8.49.13-4.56,3.93-8.15,8.49-8.02,4.47.13,8.03,3.79,8.03,8.26-.07,4.63-3.87,8.32-8.5,8.26"/>
        <path id="Path_3018" data-name="Path 3018" class="cls-5" d="m1924.14,968.04c-4.56-.13-8.15-3.93-8.02-8.49.13-4.56,3.93-8.15,8.49-8.02,4.47.13,8.03,3.79,8.03,8.26-.07,4.63-3.87,8.32-8.5,8.26"/>
        <path id="Path_3019" data-name="Path 3019" class="cls-9" d="m313.27,418.73c-3.15-.09-5.63-2.72-5.54-5.87.09-3.15,2.72-5.63,5.87-5.54,3.09.09,5.54,2.62,5.54,5.7-.05,3.19-2.67,5.75-5.87,5.7"/>
        <path id="Path_3020" data-name="Path 3020" class="cls-9" d="m313.27,445.97c-3.15-.09-5.63-2.72-5.54-5.87.09-3.15,2.72-5.63,5.87-5.54,3.09.09,5.54,2.62,5.54,5.7-.05,3.19-2.67,5.75-5.87,5.7"/>
        <path id="Path_3021" data-name="Path 3021" class="cls-9" d="m313.27,473.21c-3.15-.09-5.63-2.72-5.54-5.87.09-3.15,2.72-5.63,5.87-5.54,3.09.09,5.54,2.62,5.54,5.7-.05,3.19-2.67,5.75-5.87,5.7"/>
        <path id="Path_3022" data-name="Path 3022" class="cls-9" d="m313.27,500.46c-3.15-.09-5.63-2.72-5.54-5.87.09-3.15,2.72-5.63,5.87-5.54,3.09.09,5.54,2.62,5.54,5.7-.05,3.19-2.67,5.75-5.87,5.7"/>
        <path id="Path_3023" data-name="Path 3023" class="cls-9" d="m313.27,527.7c-3.15-.09-5.63-2.72-5.54-5.87.09-3.15,2.72-5.63,5.87-5.54,3.09.09,5.54,2.62,5.54,5.7-.05,3.19-2.67,5.75-5.87,5.7"/>
        <path id="Path_3024" data-name="Path 3024" class="cls-9" d="m313.27,554.94c-3.15-.09-5.63-2.72-5.54-5.87.09-3.15,2.72-5.63,5.87-5.54,3.09.09,5.54,2.62,5.54,5.7-.05,3.19-2.67,5.75-5.87,5.7"/>
        <path id="Path_3025" data-name="Path 3025" class="cls-9" d="m1459.21,701.79c-.09-3.24,2.46-5.95,5.7-6.04,3.24-.09,5.95,2.46,6.04,5.7.09,3.24-2.46,5.95-5.7,6.04-.06,0-.11,0-.17,0-3.19.04-5.82-2.51-5.87-5.7"/>
        <path id="Path_3026" data-name="Path 3026" class="cls-9" d="m1431.17,701.79c-.09-3.24,2.46-5.94,5.7-6.04,3.24-.09,5.94,2.46,6.04,5.7.09,3.24-2.46,5.94-5.7,6.04-.06,0-.11,0-.17,0-3.19.04-5.82-2.51-5.87-5.7"/>
        <path id="Path_3027" data-name="Path 3027" class="cls-9" d="m1403.13,701.79c-.09-3.24,2.46-5.95,5.7-6.04,3.24-.09,5.95,2.46,6.04,5.7s-2.46,5.95-5.7,6.04c-.06,0-.11,0-.17,0-3.19.04-5.82-2.51-5.87-5.7"/>
        <path id="Path_3028" data-name="Path 3028" class="cls-9" d="m1375.09,701.79c-.09-3.24,2.46-5.95,5.7-6.04,3.24-.09,5.95,2.46,6.04,5.7s-2.46,5.95-5.7,6.04c-.06,0-.11,0-.17,0-3.19.04-5.82-2.51-5.87-5.7"/>
        <path id="Path_3029" data-name="Path 3029" class="cls-9" d="m1347.05,701.79c-.09-3.24,2.46-5.95,5.7-6.04,3.24-.09,5.95,2.46,6.04,5.7.09,3.24-2.46,5.95-5.7,6.04-.06,0-.11,0-.17,0-3.19.04-5.82-2.51-5.87-5.7"/>
        <path id="Path_3030" data-name="Path 3030" class="cls-9" d="m1319.01,701.79c-.09-3.24,2.46-5.95,5.7-6.04,3.24-.09,5.95,2.46,6.04,5.7s-2.46,5.95-5.7,6.04c-.06,0-.11,0-.17,0-3.19.04-5.82-2.51-5.87-5.7"/>
        <path id="Path_3031" data-name="Path 3031" class="cls-9" d="m937.6,298.96c-.09-3.24,2.46-5.95,5.7-6.04,3.24-.09,5.95,2.46,6.04,5.7.09,3.24-2.46,5.95-5.7,6.04-.06,0-.11,0-.17,0-3.19.04-5.82-2.51-5.87-5.7"/>
        <path id="Path_3032" data-name="Path 3032" class="cls-9" d="m909.56,298.96c-.09-3.24,2.46-5.95,5.7-6.04,3.24-.09,5.95,2.46,6.04,5.7.09,3.24-2.46,5.95-5.7,6.04-.06,0-.11,0-.17,0-3.19.04-5.82-2.51-5.87-5.7"/>
        <path id="Path_3033" data-name="Path 3033" class="cls-9" d="m881.52,298.96c-.09-3.24,2.46-5.95,5.7-6.04,3.24-.09,5.95,2.46,6.04,5.7.09,3.24-2.46,5.95-5.7,6.04-.06,0-.11,0-.17,0-3.19.04-5.82-2.51-5.87-5.7"/>
        <path id="Path_3034" data-name="Path 3034" class="cls-9" d="m853.48,298.96c-.09-3.24,2.46-5.95,5.7-6.04,3.24-.09,5.95,2.46,6.04,5.7.09,3.24-2.46,5.95-5.7,6.04-.06,0-.11,0-.17,0-3.19.04-5.82-2.51-5.87-5.7"/>
        <path id="Path_3035" data-name="Path 3035" class="cls-9" d="m825.44,298.96c-.09-3.24,2.46-5.94,5.7-6.04s5.94,2.46,6.04,5.7c.09,3.24-2.46,5.94-5.7,6.04-.06,0-.11,0-.17,0-3.19.04-5.82-2.51-5.86-5.7"/>
        <path id="Path_3036" data-name="Path 3036" class="cls-9" d="m797.4,298.96c-.09-3.24,2.46-5.95,5.7-6.04,3.24-.09,5.95,2.46,6.04,5.7.09,3.24-2.46,5.95-5.7,6.04-.06,0-.11,0-.17,0-3.19.04-5.82-2.51-5.87-5.7"/>
        <path id="Path_3037" data-name="Path 3037" class="cls-9" d="m925.6,935.95h0c-24.79,0-44.89,19.53-44.89,43.62v151.38h89.79v-151.38c0-24.09-20.1-43.62-44.89-43.62"/>
        <path id="Path_3038" data-name="Path 3038" class="cls-3" d="m175.64,312.46c0,38.26-31.92,69.27-71.3,69.27s-71.3-31.01-71.3-69.27,31.92-69.27,71.3-69.27,71.3,31.02,71.3,69.27"/>
        <path id="Path_3072" data-name="Path 3072" class="cls-3" d="m1063.9,732.51c0,38.26-31.92,69.27-71.3,69.27s-71.3-31.01-71.3-69.27,31.92-69.27,71.3-69.27,71.3,31.02,71.3,69.27"/>
        <path id="Path_3073" data-name="Path 3073" class="cls-3" d="m893.26,431.18c0,38.26-31.92,69.27-71.3,69.27s-71.3-31.01-71.3-69.27,31.92-69.27,71.3-69.27,71.3,31.02,71.3,69.27"/>
        <path id="Path_3043" data-name="Path 3043" class="cls-1" d="m1408.89,36.63h0c-34.28,0-62.06-27-62.06-60.3v-192.43c0-33.3,27.78-60.3,62.06-60.3s62.06,26.99,62.06,60.3V-23.66c0,33.3-27.78,60.3-62.06,60.3Z"/>
        <path id="Path_3044" data-name="Path 3044" class="cls-1" d="m99.05,767.89h0c-34.28,0-62.06-26.99-62.06-60.3v-192.43c0-33.3,27.78-60.3,62.06-60.3s62.06,26.99,62.06,60.3v192.44c0,33.3-27.78,60.3-62.06,60.3Z"/>
        <path id="Path_3052" data-name="Path 3052" class="cls-9" d="m1747.89,762.6h5.88c1.97-.03,3.59,1.55,3.62,3.52v5.72c.06,2,1.73,3.57,3.73,3.51,1.92-.06,3.46-1.6,3.51-3.51v-5.72c.03-1.97,1.65-3.54,3.62-3.52h5.88c1.94.05,3.56-1.49,3.6-3.43.05-1.94-1.49-3.56-3.43-3.6-.06,0-.11,0-.17,0h-5.88c-1.97.03-3.59-1.55-3.62-3.52v-5.72c-.06-2-1.73-3.57-3.73-3.51-1.92.06-3.46,1.6-3.51,3.51v5.72c-.03,1.97-1.65,3.54-3.62,3.52h-5.88c-1.94-.05-3.56,1.49-3.6,3.43-.05,1.94,1.49,3.56,3.43,3.6.06,0,.11,0,.17,0"/>
        <path id="Path_3053" data-name="Path 3053" class="cls-9" d="m1774.14,814.54h-5.88c-1.97.02-3.59-1.55-3.62-3.52v-5.72c-.06-2-1.73-3.57-3.73-3.51-1.92.06-3.46,1.6-3.51,3.51v5.72c-.03,1.97-1.65,3.54-3.62,3.52h-5.88c-1.94-.05-3.56,1.49-3.6,3.43-.05,1.94,1.49,3.56,3.43,3.6.06,0,.11,0,.17,0h5.88c1.97-.03,3.59,1.55,3.62,3.52v5.71c.06,2,1.73,3.57,3.73,3.51,1.92-.06,3.46-1.6,3.51-3.51v-5.71c.03-1.97,1.65-3.54,3.62-3.52h5.88c1.94.05,3.56-1.49,3.6-3.43.05-1.94-1.49-3.56-3.43-3.6-.06,0-.11,0-.17,0"/>
        <path id="Path_3054" data-name="Path 3054" class="cls-9" d="m1774.14,873.51h-5.88c-1.97.03-3.59-1.55-3.62-3.52h0v-5.72c-.06-2-1.73-3.57-3.73-3.51-1.92.06-3.46,1.6-3.51,3.51v5.72c-.03,1.97-1.65,3.55-3.62,3.52,0,0,0,0,0,0h-5.88c-1.94-.07-3.57,1.46-3.64,3.4-.07,1.94,1.46,3.57,3.4,3.64.08,0,.16,0,.24,0h5.88c1.97-.03,3.59,1.55,3.62,3.52v5.72c.06,2,1.73,3.57,3.73,3.51,1.92-.06,3.46-1.6,3.51-3.51v-5.72c.03-1.97,1.65-3.54,3.62-3.52h5.88c1.94.07,3.57-1.46,3.64-3.4s-1.46-3.57-3.4-3.64c-.08,0-.16,0-.24,0"/>
        <path id="Path_3058" data-name="Path 3058" class="cls-9" d="m688.49,531.85c0,12.75-10.64,23.09-23.77,23.09s-23.77-10.34-23.77-23.09,10.64-23.09,23.77-23.09,23.77,10.34,23.77,23.09"/>
        <path id="Path_3074" data-name="Path 3074" class="cls-9" d="m1095.15,457.66c0,12.75-10.64,23.09-23.77,23.09s-23.77-10.34-23.77-23.09,10.64-23.09,23.77-23.09,23.77,10.34,23.77,23.09"/>
        <path id="Path_3059" data-name="Path 3059" class="cls-3" d="m1585.82,461.27c0,12.75-10.64,23.09-23.77,23.09s-23.77-10.34-23.77-23.09,10.64-23.09,23.77-23.09,23.77,10.34,23.77,23.09"/>
        <path id="Path_3060" data-name="Path 3060" class="cls-3" d="m1578.72,543.38c.26,9.2-6.98,16.88-16.19,17.14-9.2.26-16.88-6.98-17.14-16.19-.26-9.2,6.98-16.88,16.19-17.14.16,0,.32,0,.48,0,9.07-.13,16.53,7.12,16.66,16.19"/>
        <path id="Path_3061" data-name="Path 3061" class="cls-9" d="m1878.95,597.26c0,31.17-26.01,56.45-58.1,56.45s-58.1-25.27-58.1-56.45,26.01-56.45,58.1-56.45,58.1,25.27,58.1,56.45"/>
        <line id="Line_38" data-name="Line 38" class="cls-1" x1="1823.65" y1="597.44" x2="2155.71" y2="597.44"/>
        <line id="Line_39" data-name="Line 39" class="cls-1" x1="910.75" y1="638.84" x2="1243.49" y2="638.84"/>
        <line id="Line_40" data-name="Line 40" class="cls-1" x1="1132.34" y1="344.47" x2="1465.08" y2="344.47"/>
        <line id="Line_42" data-name="Line 42" class="cls-1" x1="477.82" y1="723.91" x2="652.69" y2="723.91"/>
        <path id="Path_3062" data-name="Path 3062" class="cls-1" d="m1213.48,129l26.19,20.56,26.25-20.5,26.19,20.56,26.24-20.5,26.2,20.56,26.25-20.5,26.19,20.56,26.25-20.5,26.19,20.56,26.24-20.5,26.2,20.56,26.26-20.5,26.2,20.56,26.27-20.5,26.22,20.56"/>
        <path id="Path_3063" data-name="Path 3063" class="cls-1" d="m1213.48,170.05l26.19,20.56,26.25-20.5,26.19,20.56,26.24-20.5,26.2,20.56,26.25-20.5,26.19,20.56,26.25-20.5,26.19,20.56,26.24-20.5,26.2,20.56,26.26-20.5,26.2,20.56,26.27-20.5,26.22,20.56"/>
        <path id="Path_3064" data-name="Path 3064" class="cls-1" d="m1213.48,211.11l26.19,20.56,26.25-20.5,26.19,20.56,26.24-20.5,26.2,20.56,26.25-20.5,26.19,20.56,26.25-20.5,26.19,20.56,26.24-20.5,26.2,20.56,26.26-20.5,26.2,20.56,26.27-20.5,26.22,20.56"/>
        <path id="Path_3071" data-name="Path 3071" class="cls-3" d="m613.89,447.16c0,21.97-18.33,39.77-40.93,39.77s-40.93-17.81-40.93-39.77,18.33-39.77,40.93-39.77,40.93,17.81,40.93,39.77"/>
        <line id="Line_51" data-name="Line 51" class="cls-1" x1="573.18" y1="447.16" x2="573.18" y2="522.85"/>
      </g>
    </g>
  </g>
</svg>