<?xml version="1.0" encoding="utf-8"?>
<!-- Generator: Adobe Illustrator 27.9.0, SVG Export Plug-In . SVG Version: 6.00 Build 0)  -->
<svg version="1.1" id="Layer_1" xmlns="http://www.w3.org/2000/svg" xmlns:xlink="http://www.w3.org/1999/xlink" x="0px" y="0px"
	 viewBox="0 0 77.2 107.2" style="enable-background:new 0 0 77.2 107.2;" xml:space="preserve">
<style type="text/css">
	.st0{fill:#2294BC;}
	.st1{fill:#3BB39D;}
	.st2{fill:url(#Path_3_00000123399509421392845510000017248918171085732252_);}
	.st3{fill:url(#Path_4_00000088121663944426689650000014669091314655354024_);}
	.st4{fill:url(#Path_5_00000107556080804692916760000012587312523092785055_);}
	.st5{fill:url(#Path_6_00000036215907939047561490000017356684065275592837_);}
	.st6{fill:url(#Path_7_00000163066194046568957070000007093972833282947732_);}
	.st7{fill:url(#Path_8_00000115490257743559953150000001352989417628779179_);}
</style>
<g id="SaaS_Us-01" transform="translate(-54.52 -24.02)">
	<g id="Group_1" transform="translate(54.52 24.02)">
		<path id="Path_1" class="st0" d="M67.1,15.8v35c0.1,6.2-4.8,11.3-11,11.4c0,0-0.1,0-0.1,0h-1.5c-6.2,0-11.2-5.1-11.2-11.3
			c0,0,0-0.1,0-0.1V36.1c0-2.2-1.7-4.8-3.9-4.8H23.6c-2.2,0-4.1,2.4-4.1,4.5c0.1,2.3,1.9,4.2,4.2,4.6l1.9,0.1
			c6.2,0.3,11.1,5.3,10.9,11.2c-0.2,5.8-5.4,10.5-11.6,10.5H7.2C19,79.6,42.6,84.1,60,72.3s21.8-35.4,10-52.8
			C69.1,18.2,68.1,17,67.1,15.8L67.1,15.8z"/>
		<path id="Path_2" class="st1" d="M29.2,51.5c0.1-1.8-1.7-3.4-3.9-3.5l-1.9-0.1c-6.2-0.3-11-5.9-11-12s4.9-11.6,11.2-11.6h15
			c6.5,0.2,11.7,5.4,12,11.9v14.7c0,2.2,1.8,4,4,4c0,0,0,0,0,0h1.5c2.2,0,4-1.8,4-4c0,0,0,0,0,0V9.4C42.6-2.4,19,2.1,7.2,19.5
			C0,30-1.4,43.3,3.4,55.1h21.6C27.2,55.1,29.1,53.3,29.2,51.5L29.2,51.5z"/>
	</g>
	<g id="Group_2" transform="translate(58.206 113.924)">
		
			<linearGradient id="Path_3_00000054267772224022956090000005068336694482049202_" gradientUnits="userSpaceOnUse" x1="-478.1872" y1="468.9479" x2="-477.1872" y2="468.9479" gradientTransform="matrix(9.9844 0 0 -11.5462 4774.9878 5423.2007)">
			<stop  offset="0" style="stop-color:#3BB39D"/>
			<stop  offset="1" style="stop-color:#2294BC"/>
		</linearGradient>
		<path id="Path_3" style="fill:url(#Path_3_00000054267772224022956090000005068336694482049202_);" d="M5.8,14.4
			c-0.8,0-1.6,0-2.2-0.1c-0.5,0-1-0.1-1.5-0.3c-0.4-0.1-0.7-0.3-0.9-0.6c-0.2-0.3-0.4-0.6-0.5-1c-0.1-0.5-0.1-0.9-0.1-1.4v-0.3
			l1.9,0v0.4c0,0.3,0,0.6,0.1,0.8c0.1,0.2,0.3,0.4,0.5,0.5c0.3,0.1,0.7,0.2,1,0.2c0.4,0,1,0.1,1.7,0.1c0.5,0,1,0,1.5-0.1
			c0.3,0,0.6-0.1,0.9-0.2c0.2-0.1,0.3-0.3,0.4-0.5c0.1-0.2,0.1-0.5,0.1-0.7c0-0.2,0-0.5-0.1-0.7c-0.1-0.2-0.3-0.4-0.5-0.5
			C7.7,9.9,7.4,9.8,7,9.7C6.4,9.6,5.8,9.5,5.2,9.4C4.5,9.3,3.7,9.2,2.9,9C2.4,8.9,2,8.7,1.6,8.4C1.2,8.2,1,7.9,0.9,7.5
			c-0.3-0.9-0.2-1.9,0-2.8c0.1-0.4,0.4-0.8,0.8-1c0.4-0.3,0.9-0.5,1.4-0.6c0.7-0.1,1.5-0.2,2.2-0.2c0.7,0,1.4,0,2,0.1
			C7.8,3,8.3,3.2,8.8,3.3c0.3,0.1,0.6,0.3,0.9,0.6c0.2,0.3,0.4,0.6,0.4,0.9c0.1,0.4,0.1,0.8,0.1,1.2v0.3l-1.9,0V6
			c0-0.2,0-0.5-0.1-0.7C8.1,5.1,7.9,4.9,7.7,4.8C7.4,4.7,7.1,4.6,6.8,4.6c-0.5-0.1-1-0.1-1.5-0.1c-0.5,0-0.9,0-1.4,0.1
			c-0.3,0-0.6,0.1-0.8,0.3C3,5,2.8,5.1,2.8,5.3C2.7,5.5,2.6,5.7,2.6,5.9c0,0.2,0,0.5,0.1,0.7C2.8,6.8,3,7,3.2,7.1
			c0.3,0.2,0.6,0.3,1,0.3c0.6,0.1,1.2,0.2,1.7,0.3c0.8,0.1,1.6,0.2,2.4,0.5c0.5,0.1,1,0.4,1.4,0.7c0.3,0.3,0.6,0.6,0.7,1
			c0.1,0.4,0.2,0.9,0.2,1.3c0,0.4,0,0.8-0.1,1.3c-0.1,0.3-0.2,0.7-0.4,0.9c-0.2,0.3-0.5,0.5-0.9,0.6c-0.4,0.2-0.9,0.3-1.4,0.4
			C7.1,14.4,6.5,14.4,5.8,14.4L5.8,14.4z"/>
		
			<linearGradient id="Path_4_00000016793296741535136310000016515592799527935390_" gradientUnits="userSpaceOnUse" x1="-472.8342" y1="462.043" x2="-471.8352" y2="462.043" gradientTransform="matrix(8.2746 0 0 -9.5095 3924.7559 4403.4434)">
			<stop  offset="0" style="stop-color:#3BB39D"/>
			<stop  offset="1" style="stop-color:#2294BC"/>
		</linearGradient>
		<path id="Path_4" style="fill:url(#Path_4_00000016793296741535136310000016515592799527935390_);" d="M15.7,14.4
			c-0.5,0-1.1,0-1.6-0.2c-0.4-0.1-0.8-0.3-1.1-0.5c-0.3-0.2-0.5-0.5-0.6-0.9c-0.2-0.9-0.2-1.8,0-2.7c0.1-0.4,0.3-0.7,0.6-0.9
			c0.3-0.3,0.7-0.4,1.1-0.5c0.5-0.1,1.1-0.2,1.6-0.2c0.5,0,1,0,1.6,0.2C17.6,8.8,18,9,18.3,9.2c0.3,0.2,0.5,0.5,0.7,0.8
			c0.2,0.3,0.3,0.7,0.3,1.1l-0.6,0.1c0-0.2,0-0.3-0.1-0.5c-0.1-0.2-0.2-0.3-0.4-0.4C18,10.1,17.8,10,17.5,10
			c-0.4-0.1-0.7-0.1-1.1-0.1c-0.4,0-0.8,0-1.2,0.1c-0.2,0-0.5,0.1-0.7,0.3c-0.2,0.1-0.3,0.3-0.3,0.5c-0.1,0.2-0.1,0.5-0.1,0.7
			c0,0.3,0.1,0.6,0.2,0.9c0.2,0.2,0.4,0.4,0.7,0.4c0.4,0.1,0.9,0.1,1.3,0.1c0.4,0,0.7,0,1.1-0.1c0.2,0,0.5-0.1,0.7-0.2
			c0.2-0.1,0.3-0.3,0.4-0.4c0.1-0.2,0.1-0.4,0.1-0.6l0.6,0.1c0,0.4-0.1,0.8-0.3,1.1c-0.2,0.3-0.4,0.6-0.7,0.9
			c-0.3,0.3-0.7,0.5-1.1,0.6C16.7,14.3,16.2,14.4,15.7,14.4L15.7,14.4z M20.5,11.2v1.4c0,0.4,0,1,0,1.6h-1.7l0-1.6l0-0.6l-0.1-0.6
			v-0.4l0.2-0.6l-0.3-0.6V8.4c0-0.3,0-0.6-0.1-0.9c-0.1-0.2-0.2-0.4-0.3-0.6c-0.2-0.2-0.4-0.3-0.7-0.3c-0.4-0.1-0.7-0.1-1.1-0.1
			c-0.3,0-0.7,0-1,0.1c-0.2,0-0.4,0.1-0.6,0.2c-0.1,0.1-0.2,0.2-0.3,0.4c-0.1,0.2-0.1,0.4-0.1,0.6l-1.8,0c0-0.4,0-0.9,0.2-1.3
			c0.1-0.4,0.3-0.7,0.6-0.9c0.4-0.3,0.8-0.4,1.2-0.5c0.6-0.1,1.2-0.2,1.8-0.2c0.7,0,1.3,0,2,0.2c0.5,0.1,0.9,0.3,1.2,0.6
			c0.3,0.3,0.5,0.6,0.7,1c0.1,0.4,0.2,0.9,0.2,1.4v0.8c0,0.2,0,0.5,0,0.7s0,0.5,0,0.7L20.5,11.2L20.5,11.2z"/>
		
			<linearGradient id="Path_5_00000092426622596114638850000011402672089328314247_" gradientUnits="userSpaceOnUse" x1="-472.8342" y1="462.043" x2="-471.8352" y2="462.043" gradientTransform="matrix(8.2746 0 0 -9.5095 3935.1309 4403.4434)">
			<stop  offset="0" style="stop-color:#3BB39D"/>
			<stop  offset="1" style="stop-color:#2294BC"/>
		</linearGradient>
		<path id="Path_5" style="fill:url(#Path_5_00000092426622596114638850000011402672089328314247_);" d="M26,14.4
			c-0.5,0-1.1,0-1.6-0.2c-0.4-0.1-0.8-0.3-1.1-0.5c-0.3-0.2-0.5-0.5-0.6-0.9c-0.2-0.9-0.2-1.8,0-2.7c0.1-0.4,0.3-0.7,0.6-0.9
			C23.7,9,24,8.8,24.4,8.7C25,8.6,25.5,8.6,26,8.6c0.5,0,1,0,1.6,0.2C28,8.8,28.3,9,28.7,9.2c0.3,0.2,0.5,0.5,0.7,0.8
			c0.2,0.3,0.3,0.7,0.3,1.1L29,11.1c0-0.2,0-0.3-0.1-0.5c-0.1-0.2-0.2-0.3-0.4-0.4c-0.2-0.1-0.4-0.2-0.7-0.2
			c-0.4-0.1-0.7-0.1-1.1-0.1c-0.4,0-0.8,0-1.2,0.1c-0.2,0-0.5,0.1-0.7,0.3c-0.2,0.1-0.3,0.3-0.3,0.5c-0.1,0.2-0.1,0.5-0.1,0.7
			c0,0.3,0.1,0.6,0.2,0.9c0.2,0.2,0.4,0.4,0.7,0.4c0.4,0.1,0.9,0.1,1.3,0.1c0.4,0,0.7,0,1.1-0.1c0.2,0,0.5-0.1,0.7-0.2
			c0.2-0.1,0.3-0.3,0.4-0.4c0.1-0.2,0.1-0.4,0.1-0.6l0.6,0.1c0,0.4-0.1,0.8-0.3,1.1c-0.2,0.3-0.4,0.6-0.7,0.9
			c-0.3,0.3-0.7,0.5-1.1,0.6C27.1,14.3,26.5,14.4,26,14.4L26,14.4z M30.9,11.2v1.4c0,0.4,0,1,0,1.6h-1.7l0-1.6l0-0.6L29,11.5v-0.4
			l0.2-0.6L29,9.9V8.4c0-0.3,0-0.6-0.1-0.9c-0.1-0.2-0.2-0.4-0.3-0.6c-0.2-0.2-0.4-0.3-0.7-0.3c-0.4-0.1-0.7-0.1-1.1-0.1
			c-0.3,0-0.7,0-1,0.1c-0.2,0-0.4,0.1-0.6,0.2C25,6.9,24.9,7,24.9,7.2c-0.1,0.2-0.1,0.4-0.1,0.6l-1.8,0c0-0.4,0-0.9,0.2-1.3
			c0.1-0.4,0.3-0.7,0.6-0.9c0.4-0.3,0.8-0.4,1.2-0.5c0.6-0.1,1.2-0.2,1.8-0.2c0.7,0,1.3,0,2,0.2c0.5,0.1,0.9,0.3,1.2,0.6
			c0.3,0.3,0.5,0.6,0.7,1c0.1,0.4,0.2,0.9,0.2,1.4v0.8c0,0.2,0,0.5,0,0.7s0,0.5,0,0.7L30.9,11.2L30.9,11.2z"/>
		
			<linearGradient id="Path_6_00000179647509122502239650000002788757885295483526_" gradientUnits="userSpaceOnUse" x1="-478.1872" y1="468.9479" x2="-477.1872" y2="468.9479" gradientTransform="matrix(9.9843 0 0 -11.5462 4807.2568 5423.2007)">
			<stop  offset="0" style="stop-color:#3BB39D"/>
			<stop  offset="1" style="stop-color:#2294BC"/>
		</linearGradient>
		<path id="Path_6" style="fill:url(#Path_6_00000179647509122502239650000002788757885295483526_);" d="M38.1,14.4
			c-0.8,0-1.6,0-2.2-0.1c-0.5,0-1-0.1-1.5-0.3c-0.4-0.1-0.7-0.3-0.9-0.6c-0.2-0.3-0.4-0.6-0.5-1c-0.1-0.5-0.1-0.9-0.1-1.4v-0.3
			l1.9,0v0.4c0,0.3,0,0.6,0.1,0.8c0.1,0.2,0.3,0.4,0.5,0.5c0.3,0.1,0.7,0.2,1,0.2c0.4,0,1,0.1,1.7,0.1c0.5,0,1,0,1.5-0.1
			c0.3,0,0.6-0.1,0.9-0.2c0.2-0.1,0.3-0.3,0.4-0.5c0.1-0.2,0.1-0.5,0.1-0.7c0-0.2,0-0.5-0.1-0.7c-0.1-0.2-0.3-0.4-0.5-0.5
			c-0.3-0.2-0.7-0.3-1-0.4c-0.6-0.1-1.2-0.2-1.8-0.3C36.7,9.3,36,9.2,35.2,9c-0.5-0.1-1-0.3-1.4-0.6c-0.3-0.2-0.6-0.6-0.7-0.9
			c-0.3-0.9-0.2-1.9,0-2.8c0.1-0.4,0.4-0.8,0.8-1c0.4-0.3,0.9-0.5,1.4-0.6c0.7-0.1,1.5-0.2,2.2-0.2c0.7,0,1.4,0,2,0.1
			C40.1,3,40.6,3.2,41,3.3c0.3,0.1,0.6,0.3,0.9,0.6c0.2,0.3,0.4,0.6,0.4,0.9c0.1,0.4,0.1,0.8,0.1,1.2v0.3l-1.9,0V6
			c0-0.2,0-0.5-0.1-0.7c-0.1-0.2-0.3-0.4-0.5-0.5c-0.3-0.1-0.6-0.2-0.9-0.2c-0.5-0.1-1-0.1-1.5-0.1c-0.5,0-0.9,0-1.4,0.1
			c-0.3,0-0.6,0.1-0.8,0.3C35.3,5,35.1,5.1,35,5.3c-0.1,0.2-0.1,0.4-0.1,0.6c0,0.2,0,0.5,0.1,0.7c0.1,0.2,0.2,0.4,0.4,0.5
			c0.3,0.2,0.6,0.3,1,0.3c0.6,0.1,1.2,0.2,1.7,0.3c0.8,0.1,1.6,0.2,2.4,0.5c0.5,0.1,1,0.4,1.4,0.7c0.3,0.3,0.6,0.6,0.7,1
			c0.1,0.4,0.2,0.9,0.2,1.3c0,0.4,0,0.8-0.1,1.3c-0.1,0.3-0.2,0.7-0.4,0.9c-0.2,0.3-0.5,0.5-0.9,0.6c-0.4,0.2-0.9,0.3-1.4,0.4
			C39.4,14.4,38.8,14.4,38.1,14.4L38.1,14.4z"/>
		
			<linearGradient id="Path_7_00000047757537945405054950000009971562917873035422_" gradientUnits="userSpaceOnUse" x1="-478.4369" y1="468.3529" x2="-477.4369" y2="468.3529" gradientTransform="matrix(10.0815 0 0 -11.3369 4872.5972 5318.4326)">
			<stop  offset="0" style="stop-color:#3BB39D"/>
			<stop  offset="1" style="stop-color:#2294BC"/>
		</linearGradient>
		<path id="Path_7" style="fill:url(#Path_7_00000047757537945405054950000009971562917873035422_);" d="M59.3,3.1
			c0,0.3,0,0.6,0,0.9v3c0,0.2,0,0.5,0,0.8s0,0.6,0,0.9v1c0,0.6,0,1.2-0.2,1.8c-0.1,0.5-0.3,0.9-0.5,1.3c-0.2,0.4-0.6,0.7-0.9,0.9
			c-0.4,0.2-0.9,0.4-1.4,0.5c-0.7,0.1-1.3,0.2-2,0.2c-0.8,0-1.6-0.1-2.4-0.2c-0.6-0.1-1.1-0.4-1.6-0.8c-0.4-0.4-0.7-0.9-0.8-1.5
			c-0.2-0.7-0.3-1.5-0.3-2.2v-1c0-0.3,0-0.6,0-0.9s0-0.5,0-0.8V4c0-0.3,0-0.6,0-0.9h1.9c0,0.3,0,0.6,0,1v5.5c0,0.5,0,1,0.1,1.5
			c0.1,0.4,0.2,0.7,0.5,1c0.3,0.3,0.6,0.4,1,0.5c1,0.2,2,0.2,3,0c0.4-0.1,0.7-0.2,1-0.5c0.2-0.3,0.4-0.6,0.5-1
			c0.1-0.5,0.2-1,0.1-1.5V4c0-0.3,0-0.7,0-0.9L59.3,3.1L59.3,3.1z"/>
		
			<linearGradient id="Path_8_00000135669204492060094280000014435887409077887154_" gradientUnits="userSpaceOnUse" x1="-471.8447" y1="461.934" x2="-470.8437" y2="461.934" gradientTransform="matrix(8.0207 0 0 -9.4831 3845.7434 4390.2065)">
			<stop  offset="0" style="stop-color:#3BB39D"/>
			<stop  offset="1" style="stop-color:#2294BC"/>
		</linearGradient>
		<path id="Path_8" style="fill:url(#Path_8_00000135669204492060094280000014435887409077887154_);" d="M65.3,14.4
			c-0.7,0-1.4,0-2.1-0.1c-0.4-0.1-0.9-0.2-1.3-0.5c-0.3-0.2-0.5-0.6-0.6-1c-0.1-0.5-0.2-1-0.2-1.6l1.8,0v0.2c0,0.2,0,0.5,0.1,0.7
			c0.1,0.2,0.2,0.3,0.4,0.4c0.2,0.1,0.5,0.2,0.7,0.2c0.4,0.1,0.8,0.1,1.2,0.1c0.3,0,0.6,0,1-0.1c0.2,0,0.4-0.1,0.6-0.2
			c0.1-0.1,0.2-0.2,0.3-0.4c0.1-0.2,0.1-0.4,0.1-0.5c0-0.2,0-0.3-0.1-0.4c-0.1-0.2-0.2-0.3-0.4-0.4c-0.2-0.1-0.5-0.2-0.8-0.3
			c-0.4-0.1-0.8-0.2-1.4-0.3c-0.6-0.1-1.1-0.2-1.7-0.4c-0.4-0.1-0.7-0.3-1-0.5c-0.2-0.2-0.4-0.5-0.5-0.7c-0.1-0.4-0.2-0.7-0.1-1.1
			c0-0.4,0.1-0.9,0.2-1.3c0.1-0.3,0.3-0.6,0.6-0.8c0.3-0.2,0.7-0.4,1.1-0.5C63.9,5,64.4,4.9,65,4.9c0.7,0,1.3,0,2,0.2
			c0.4,0.1,0.8,0.2,1.2,0.5c0.3,0.2,0.5,0.6,0.6,0.9c0.1,0.4,0.2,0.9,0.2,1.4l-1.8,0V7.7c0-0.2,0-0.4-0.1-0.6
			c-0.1-0.2-0.2-0.3-0.3-0.4c-0.2-0.1-0.4-0.2-0.7-0.2c-0.4,0-0.7-0.1-1.1-0.1c-0.3,0-0.6,0-0.8,0.1c-0.2,0-0.4,0.1-0.6,0.2
			c-0.1,0.1-0.2,0.2-0.3,0.4c-0.1,0.2-0.1,0.3-0.1,0.5c0,0.2,0,0.3,0.1,0.5c0.1,0.1,0.2,0.3,0.3,0.3c0.2,0.1,0.4,0.2,0.7,0.3
			c0.4,0.1,0.8,0.2,1.2,0.2c0.7,0.1,1.3,0.2,2,0.4c0.4,0.1,0.8,0.3,1.2,0.6c0.2,0.2,0.4,0.5,0.5,0.8c0.1,0.3,0.2,0.7,0.1,1
			c0,0.4,0,0.9-0.2,1.3c-0.1,0.3-0.3,0.7-0.6,0.9c-0.4,0.2-0.8,0.4-1.2,0.5C66.6,14.4,66,14.4,65.3,14.4L65.3,14.4z"/>
	</g>
</g>
</svg>
