<?xml version="1.0" encoding="utf-8"?>
<!-- Generator: Adobe Illustrator 27.5.0, SVG Export Plug-In . SVG Version: 6.00 Build 0)  -->
<svg version="1.1" id="Layer_1" xmlns="http://www.w3.org/2000/svg" xmlns:xlink="http://www.w3.org/1999/xlink" x="0px" y="0px"
	 viewBox="0 0 512 512" style="enable-background:new 0 0 512 512;" xml:space="preserve">
<style type="text/css">
	.st0{fill:none;}
	.st1{fill:none;stroke:#DA6A52;stroke-width:5.333;stroke-linecap:round;stroke-linejoin:round;}
	.st2{fill:#FFFFFF;}
	.st3{fill:none;stroke:#DA6A52;stroke-width:5.3319;stroke-linecap:round;stroke-linejoin:round;stroke-miterlimit:3.9992;}
	.st4{fill:#FEF2F0;}
	.st5{fill:#DA6A52;}
	.st6{clip-path:url(#SVGID_00000053536773189026242520000008761070820487891098_);}
	.st7{clip-path:url(#SVGID_00000083796774845641116730000013116107941472003971_);}
	.st8{fill-rule:evenodd;clip-rule:evenodd;fill:#DA6A52;}
	.st9{clip-path:url(#SVGID_00000035497941826641574500000013110966072455526847_);}
	.st10{clip-path:url(#SVGID_00000005947696614754874450000014411822265550743178_);}
	.st11{clip-path:url(#SVGID_00000132790868022973669040000003436340430995020206_);}
	.st12{clip-path:url(#SVGID_00000179611630955789398250000010900523570690135740_);}
	.st13{clip-path:url(#SVGID_00000101086532263401427740000016249329645861296826_);}
</style>
<path id="Path_3105" class="st8" d="M371.18,408.52c0.12-1.52-1.01-2.86-2.54-2.98c-1.52-0.12-2.86,1.01-2.98,2.54
	c-0.12,1.52,1.01,2.86,2.54,2.98c0,0,0.01,0,0.01,0h0.22c0.72,0,1.42-0.27,1.95-0.75c0.51-0.46,0.8-1.12,0.79-1.8 M386.37,408.5
	c0.92,9.91-6.37,18.69-16.28,19.61c-9.91,0.92-18.69-6.37-19.61-16.28c-0.92-9.91,6.37-18.69,16.29-19.61c0,0,0,0,0,0
	c0.55-0.06,1.1-0.08,1.67-0.08c9.46-0.41,17.48,6.9,17.95,16.36 M368.96,294.88h-1.04c-1.96-0.02-3.86,0.74-5.25,2.13
	c-1.32,1.31-1.96,3.16-1.73,5.01l7.51,63.89l7.51-63.89c0.23-1.85-0.41-3.7-1.73-5.01c-1.39-1.38-3.29-2.15-5.25-2.12L368.96,294.88
	z M368.96,281c6.18-0.05,12.13,2.37,16.52,6.73c4.16,4.13,6.21,9.94,5.57,15.77l-8.71,74.4c-1.5,7.67-8.94,12.66-16.6,11.16
	c-5.64-1.11-10.05-5.52-11.16-11.16l-8.8-74.37c-0.64-5.83,1.41-11.63,5.57-15.77c4.39-4.37,10.35-6.8,16.54-6.75L368.96,281z
	 M242.05,400.14l18.79-29.69H37.6v29.69H242.05z M73.39,356.56h32.52v-78.64H73.39V356.56z M157.87,356.56h32.52V190.7h-32.52
	V356.56z M242.36,356.56h27.25l5.27-8.36V234.34h-32.54L242.36,356.56z M326.84,265.93l22.48-35.58c2.4-3.75,5.89-6.67,10-8.36
	v-74.86h-32.52L326.84,265.93z M374.38,237.31l117.99,186.7c1.3,1.91,1.3,4.41,0,6.32c-1.27,2.04-3.55,3.23-5.95,3.11H250.44
	c-2.4,0.11-4.67-1.08-5.95-3.11c-1.3-1.9-1.3-4.41,0-6.32l117.99-186.7c2.2-3.28,6.64-4.16,9.93-1.97c0,0,0,0,0,0l0.04,0.02
	c0.76,0.52,1.42,1.18,1.94,1.94 M231.37,417.13l1.93-3.11H30c-4,0.16-7.39-2.94-7.59-6.94v-43.55c0.2-4,3.58-7.1,7.59-6.94h28.18
	v-85.58c0.19-4.01,3.58-7.11,7.59-6.95h47.71c1.98-0.01,3.89,0.72,5.37,2.04c1.4,1.25,2.21,3.03,2.23,4.91v85.59h21.59V183.78
	c0.01-1.88,0.82-3.67,2.23-4.91c1.48-1.33,3.4-2.05,5.38-2.03h47.71c1.99-0.02,3.91,0.7,5.4,2.03c1.4,1.25,2.21,3.03,2.23,4.91
	v172.83h21.57V227.4c0.01-1.88,0.82-3.67,2.23-4.91c1.48-1.33,3.4-2.05,5.39-2.04h47.71c1.98-0.01,3.9,0.72,5.37,2.04
	c1.4,1.25,2.21,3.02,2.23,4.9v96.8l21.49-34.16V140.19c0.02-1.88,0.83-3.66,2.23-4.91c1.47-1.32,3.39-2.05,5.37-2.03h47.71
	c1.99-0.02,3.91,0.7,5.4,2.03c1.4,1.25,2.21,3.03,2.22,4.91v80.9c5.37,1.31,10.02,4.64,13,9.3l117.99,186.79
	c3.94,6.14,3.94,14.01,0,20.15c-4.24,6.38-11.45,10.16-19.11,10.03H250.43c-7.66,0.12-14.85-3.67-19.08-10.05
	c-3.94-6.13-3.94-14,0-20.14L231.37,417.13z M83.95,197.83l84.48-87.17c2.48-2.5,6.29-3.1,9.42-1.49l79.25,40.9l72.51-71.52h-18.38
	c-3.83,0.39-7.25-2.39-7.65-6.22c-0.39-3.83,2.39-7.25,6.22-7.65c0.05-0.01,0.1-0.01,0.16-0.01c0.42-0.04,0.85-0.04,1.27,0H347
	c4.01-0.17,7.41,2.93,7.61,6.94v32.74c-0.27,4.19-3.89,7.38-8.08,7.11c-3.82-0.24-6.86-3.29-7.11-7.11v-15l-75.22,74.19
	c-2.5,2.38-6.22,2.93-9.3,1.38l-79.13-40.85l-80.43,82.98c-2.92,2.87-7.51,3.12-10.72,0.58c-2.87-2.2-3.41-6.3-1.21-9.17l0,0
	c0.17-0.23,0.36-0.46,0.56-0.67L83.95,197.83z"/>
</svg>
