<?xml version="1.0" encoding="utf-8"?>
<!-- Generator: Adobe Illustrator 27.5.0, SVG Export Plug-In . SVG Version: 6.00 Build 0)  -->
<svg version="1.1" id="Layer_1" xmlns="http://www.w3.org/2000/svg" xmlns:xlink="http://www.w3.org/1999/xlink" x="0px" y="0px"
	 viewBox="0 0 512 512" style="enable-background:new 0 0 512 512;" xml:space="preserve">
<style type="text/css">
	.st0{fill:none;}
	.st1{fill:none;stroke:#DA6A52;stroke-width:5.333;stroke-linecap:round;stroke-linejoin:round;}
	.st2{fill:#FFFFFF;}
	.st3{fill:none;stroke:#DA6A52;stroke-width:5.3319;stroke-linecap:round;stroke-linejoin:round;stroke-miterlimit:3.9992;}
	.st4{fill:#FEF2F0;}
	.st5{fill:#DA6A52;}
	.st6{clip-path:url(#SVGID_00000165202848467774028870000011053638037773403030_);}
	.st7{clip-path:url(#SVGID_00000181784497795397897940000014440658104874966678_);}
	.st8{fill-rule:evenodd;clip-rule:evenodd;fill:#DA6A52;}
	.st9{clip-path:url(#SVGID_00000111879831507167395620000005900029035576961939_);}
	.st10{clip-path:url(#SVGID_00000148647471986958236500000006638321676341167240_);}
	.st11{clip-path:url(#SVGID_00000011753807335422957910000015631634591363750784_);}
	.st12{clip-path:url(#SVGID_00000142875597465404973080000007299933310923318935_);}
</style>
<g>
	<path id="Path_3107" class="st5" d="M372.27,390.18h-20.24V299.5c-0.51-5.59-5.45-9.71-11.04-9.21c-4.89,0.44-8.76,4.32-9.21,9.21
		v90.67H68.56V205.14h84.23c5.11,0.49,9.65-3.25,10.14-8.36c0.49-5.11-3.25-9.65-8.36-10.14c-0.59-0.06-1.19-0.06-1.78,0H58.45
		c-5.36-0.24-9.9,3.9-10.16,9.25v194.28h-20.2c-5.35-0.22-9.87,3.92-10.12,9.26v18.5c0,25.56,22.66,46.26,50.62,46.26H331.8
		c27.95,0,50.62-20.71,50.62-46.26v-18.5c-0.26-5.34-4.78-9.47-10.13-9.25 M362.17,417.94c-0.77,16.02-14.32,28.42-30.35,27.76
		h-20.27v-9.25c-0.5-5.59-5.45-9.72-11.04-9.21c-4.89,0.44-8.77,4.32-9.21,9.21v9.25H109.06v-9.25c-0.51-5.59-5.46-9.71-11.06-9.2
		c-4.88,0.45-8.75,4.32-9.2,9.2v9.25H68.56c-16.03,0.67-29.6-11.73-30.36-27.76v-9.25h323.99L362.17,417.94z"/>
	<path id="Path_3108" class="st5" d="M372.29,103.36c3.11,0.03,6.08-1.33,8.1-3.7l30.35-37.01c3.1-3.69,2.62-9.2-1.08-12.3
		c0,0,0,0-0.01,0l-0.04-0.05c-0.29-0.22-0.58-0.45-0.89-0.65c-4.52-3.05-10.6-2.25-14.17,1.88L364.2,88.52
		c-3.09,3.7-2.59,9.21,1.12,12.3l0,0c0.28,0.24,0.58,0.46,0.89,0.66c1.8,1.22,3.92,1.87,6.09,1.86L372.29,103.36z"/>
	<path id="Path_3109" class="st5" d="M394.55,136.66c2.01,2.38,4.98,3.73,8.09,3.7c2.17,0,4.29-0.65,6.09-1.88l40.49-27.75
		c4.07-2.59,5.27-7.99,2.68-12.06c0,0,0,0,0,0l0,0c-0.2-0.32-0.41-0.62-0.64-0.91c-3.57-4.12-9.66-4.92-14.17-1.86l-40.49,27.8
		c-4.07,2.59-5.27,7.99-2.69,12.07c0.2,0.31,0.42,0.6,0.66,0.88"/>
	<path id="Path_3110" class="st5" d="M493.79,157.02c-0.53-2.55-2.11-4.76-4.35-6.09c-2.34-1.4-5.12-1.88-7.8-1.33l-50.63,9.23
		c-5.27,0.23-9.36,4.7-9.13,9.97v0.21c0.85,5.33,5.79,9.02,11.14,8.32h2.03l50.62-9.26c2.65-0.4,5.04-1.83,6.64-3.97
		c1.52-2.03,2.07-4.63,1.49-7.1"/>
	<path id="Path_3111" class="st5" d="M363.37,156.1c-3.07-4.52-9.05-6-13.87-3.43c-4.42,2.11-6.3,7.4-4.2,11.82
		c0.14,0.29,0.29,0.58,0.46,0.86l44.65,70.59l-161.99,55.51h-1.5l-26.31,13.89l-17.51,9.26c-4.74,2.48-10.22,3.14-15.41,1.86
		c-5.04-1.18-9.43-4.27-12.26-8.61l-20.24-32c-4.75-8.51-1.7-19.26,6.81-24.01l0.03-0.02c0.23-0.13,0.49-0.28,0.75-0.4l35.02-18.51
		l25.32,40.06c3.35,4.86,10.01,6.08,14.87,2.73c1.07-0.74,1.99-1.66,2.73-2.73c1.83-2.82,1.83-6.45,0-9.28l-26.12-41.27
		l127.08-95.78l4.16,6.57c3.08,4.51,9.05,5.98,13.87,3.41c4.42-2.11,6.3-7.4,4.2-11.82c-0.14-0.29-0.3-0.57-0.47-0.85l-10.13-16.01
		c-1.6-2.41-4.14-4.02-7-4.44c-2.92-0.51-5.92,0.2-8.31,1.95L176.29,212.25l-43.13,22.76c-15.54,7.61-23.39,25.26-18.63,41.9
		l-10.12,5.24c-10.39,5.09-16.4,16.21-14.96,27.69c1.99,11.56,10.82,20.74,22.28,23.2c7.78,1.87,15.97,0.88,23.09-2.78l10.12-5.24
		c4.99,4.66,11.09,7.97,17.72,9.62c3.47,0.89,7.05,1.33,10.63,1.3c7.06,0.03,14.02-1.69,20.25-5.01l8.81-4.62l20.24,32.1
		c9.19,13.44,27.02,17.83,41.41,10.2c6.81-3.47,11.92-9.55,14.17-16.85c2.1-7.13,1.01-14.82-2.99-21.08l-18.51-29.34l151.89-52.08
		c2.71-0.89,4.9-2.91,5.98-5.55c1-2.53,0.74-5.38-0.71-7.68L363.37,156.1z M124.26,314.21c-2.37,1.24-5.11,1.57-7.7,0.93
		c-2.53-0.57-4.75-2.09-6.18-4.26c-1.34-2.09-1.71-4.66-1.02-7.04c0.76-2.45,2.48-4.49,4.77-5.64l8.81-4.63l10.09,15.99
		L124.26,314.21z M257.49,340.12c1.34,2.08,1.71,4.65,1.02,7.03c-0.78,2.42-2.5,4.42-4.77,5.55c-4.77,2.54-10.68,1.11-13.76-3.33
		l-20.27-32.1l16.81-8.8h0.81L257.49,340.12z"/>
</g>
</svg>
