<?xml version="1.0" encoding="utf-8"?>
<!-- Generator: Adobe Illustrator 27.5.0, SVG Export Plug-In . SVG Version: 6.00 Build 0)  -->
<svg version="1.1" id="Layer_1" xmlns="http://www.w3.org/2000/svg" xmlns:xlink="http://www.w3.org/1999/xlink" x="0px" y="0px"
	 viewBox="0 0 512 512" style="enable-background:new 0 0 512 512;" xml:space="preserve">
<style type="text/css">
	.st0{fill:none;}
	.st1{fill:none;stroke:#DA6A52;stroke-width:5.333;stroke-linecap:round;stroke-linejoin:round;}
	.st2{fill:#FFFFFF;}
	.st3{fill:none;stroke:#DA6A52;stroke-width:5.3319;stroke-linecap:round;stroke-linejoin:round;stroke-miterlimit:3.9992;}
	.st4{fill:#FEF2F0;}
	.st5{fill:#DA6A52;}
	.st6{clip-path:url(#SVGID_00000091009227157044982220000010426693842243663236_);}
	.st7{clip-path:url(#SVGID_00000044863235086368280630000006852572632963239573_);}
	.st8{clip-path:url(#SVGID_00000124129409699802414450000014525807083212646822_);}
	.st9{fill-rule:evenodd;clip-rule:evenodd;fill:#DA6A52;}
	.st10{clip-path:url(#SVGID_00000181087485623066618230000013682443808278784899_);}
	.st11{clip-path:url(#SVGID_00000029766480031793953900000000924343071841883551_);}
	.st12{clip-path:url(#SVGID_00000088100853346970798980000008278285392450157954_);}
	.st13{clip-path:url(#SVGID_00000074435260669539074690000003010799192109473693_);}
	.st14{clip-path:url(#SVGID_00000157279778957205963270000010021621643098303624_);}
</style>
<path id="Path_3106" class="st5" d="M491.4,320.99c-4.51-6.91-23.08-27.39-72.05-1.32l-86.36,45.98c-4.18,2.25-8.65,3.89-13.29,4.89
	c1.75-2.59,3.09-5.44,3.96-8.45c3.79-15.95-6.06-31.95-22.01-35.74c0,0,0,0,0,0l-0.3-0.07c-0.33-0.1-0.67-0.17-1.01-0.22
	c-23.44-4.45-46.51-10.7-69-18.7c-6.84-2.25-13.3-4.39-18.79-6.02c-22.11-6.56-42.1,1.55-58.74,10.37l-64.25,33.98l-7.04-11.32
	c-2.8-4.41-7.22-7.56-12.31-8.77c-5.2-1.34-10.71-0.73-15.49,1.73l-24.22,12.52c-8.92,4.17-12.77,14.78-8.61,23.7
	c0.28,0.6,0.6,1.15,0.92,1.72l71.24,115.02c2.79,4.42,7.21,7.56,12.29,8.77c1.8,0.46,3.65,0.7,5.5,0.7
	c3.48,0.01,6.91-0.82,9.99-2.42l24.22-12.52c4.6-2.29,8.07-6.36,9.6-11.27c1.46-4.77,0.77-9.94-1.88-14.17l-6.38-10.29l14.62-7.75
	l110.6,27.08c6.01,1.5,12.19,2.27,18.38,2.29c11.98,0,23.75-3.13,34.15-9.09l156.71-88.2c14.31-8.88,18.72-27.68,9.84-41.99
	c0-0.01-0.01-0.01-0.01-0.02l-0.01-0.02c-0.09-0.16-0.2-0.32-0.3-0.48L491.4,320.99z M140.89,459.85c-0.37,1.21-1.23,2.21-2.36,2.78
	l-24.23,12.52c-1.17,0.6-2.53,0.75-3.81,0.42c-1.26-0.3-2.35-1.07-3.05-2.16L36.2,358.39c-0.64-1.04-0.8-2.32-0.43-3.49
	c0.36-1.22,1.21-2.24,2.35-2.82l24.23-12.54c1.18-0.6,2.54-0.74,3.82-0.41c1.26,0.29,2.35,1.06,3.04,2.15l61.12,98.72l10.11,16.3
	c0.66,1.05,0.82,2.34,0.45,3.52 M473.86,351.56l-156.69,88.17c-12.3,6.98-26.86,8.85-40.52,5.2l-113.68-27.8
	c-1.96-0.48-4.04-0.23-5.83,0.71l-17.26,9.1l-42.72-69l64.37-34.06c14.4-7.62,29.97-14.01,46.3-9.15
	c5.26,1.55,11.27,3.52,18.31,5.87c23.13,8.21,46.85,14.62,70.96,19.19c8.38,1.87,13.66,10.18,11.78,18.56c0,0,0,0.01,0,0.01
	l-0.03,0.11c-3.04,10.33-12.45,11.6-19.92,10.82c-12.72-2.39-24.81-5.54-37.6-8.88c-6.06-1.58-12.33-3.21-18.78-4.78
	c-3.94-1.09-8.06,1.06-9.41,4.93c-0.97,3.73,1.27,7.54,5,8.51l0.39,0.09c6.34,1.55,12.54,3.17,18.54,4.73
	c13.18,3.45,25.63,6.69,39.03,9.19c9.69,2.1,19.63,2.85,29.53,2.22c8.78-0.85,17.31-3.43,25.09-7.58l86.36-45.96
	c24.85-13.23,43.98-14.57,51.17-3.61c4.93,7.73,3,17.96-4.39,23.37L473.86,351.56z M70.32,363.32c0.53,4.41-2.62,8.42-7.04,8.94
	c0,0,0,0,0,0h-0.26c-4.53,0.77-8.87-2.17-9.82-6.67c-0.53-4.41,2.62-8.41,7.03-8.94h0.01l0.26-0.04c4.53-0.76,8.86,2.18,9.81,6.68
	 M212.6,293.94h193.61c4.06,0.17,7.5-2.98,7.67-7.04v-80.29c0-20.35-17.07-35.91-46.85-42.63c-12.65-2.88-25.48-4.83-38.41-5.84
	c20.31-10.7,32.74-32.04,32.02-54.98c0-29.9-19.63-48.43-51.24-48.43s-51.24,18.56-51.24,48.43c-0.71,22.89,11.66,44.19,31.89,54.91
	c-12.91,0.97-25.73,2.95-38.34,5.91c-30.18,7.09-46.79,22.23-46.79,42.63v80.35c0.18,4.06,3.61,7.21,7.67,7.04L212.6,293.94z
	 M273.52,103.08c0-29.94,22.48-34.4,35.91-34.4s35.91,4.46,35.91,34.4c0,24.99-16.09,45.32-35.91,45.32S273.52,128.07,273.52,103.08
	 M220.28,206.58c0-17.14,19.16-25.24,35.26-29c35.46-8.25,72.35-8.25,107.81,0c13.14,2.99,35.2,10.7,35.2,29v73.35h-28.63v-54.87
	c-0.34-4.24-4.04-7.41-8.28-7.07c-3.77,0.3-6.77,3.3-7.07,7.07v54.87h-90.32v-54.87c-0.52-4.24-4.39-7.26-8.63-6.74
	c-3.52,0.44-6.3,3.21-6.74,6.74v54.87h-28.63L220.28,206.58z"/>
</svg>
