<?xml version="1.0" encoding="utf-8"?>
<!-- Generator: Adobe Illustrator 27.5.0, SVG Export Plug-In . SVG Version: 6.00 Build 0)  -->
<svg version="1.1" id="Layer_1" xmlns="http://www.w3.org/2000/svg" xmlns:xlink="http://www.w3.org/1999/xlink" x="0px" y="0px"
	 viewBox="0 0 512 512" style="enable-background:new 0 0 512 512;" xml:space="preserve">
<style type="text/css">
	.st0{fill:none;}
	.st1{fill:none;stroke:#DA6A52;stroke-width:5.333;stroke-linecap:round;stroke-linejoin:round;}
	.st2{fill:#FFFFFF;}
	.st3{fill:none;stroke:#DA6A52;stroke-width:5.3319;stroke-linecap:round;stroke-linejoin:round;stroke-miterlimit:3.9992;}
	.st4{fill:#FEF2F0;}
	.st5{fill:#DA6A52;}
	.st6{clip-path:url(#SVGID_00000024709611488663105910000010936666406000999811_);}
	.st7{clip-path:url(#SVGID_00000106147254830930436560000014288640441222465191_);}
	.st8{clip-path:url(#SVGID_00000146467020022670257880000000512122636274555309_);}
	.st9{fill-rule:evenodd;clip-rule:evenodd;fill:#DA6A52;}
	.st10{clip-path:url(#SVGID_00000178201725633488887290000003713664486044270978_);}
	.st11{clip-path:url(#SVGID_00000174562471135046812150000000581555568621510284_);}
	.st12{clip-path:url(#SVGID_00000028325750292546972320000005849359164681434271_);}
	.st13{clip-path:url(#SVGID_00000161600568856012972060000016176286064474487986_);}
	.st14{clip-path:url(#SVGID_00000155144474447931481950000007942850179826325137_);}
	.st15{clip-path:url(#SVGID_00000062152469560936100480000015255763613224458154_);}
</style>
<rect x="-203.97" y="905.51" class="st0" width="1396" height="724.14"/>
<path id="Path_3098" class="st1" d="M-193.34,1219.2v-214.61c0-53.89,43.69-97.58,97.58-97.58c0,0,0,0,0,0H58.36
	c50.3,0,91.08,40.78,91.08,91.08v539c0,50.3,40.78,91.08,91.08,91.08h160.17c50.3,0,91.08-40.78,91.08-91.08v-539
	c0-50.3,40.78-91.08,91.07-91.08h161.54c50.3,0,91.08,40.78,91.08,91.07c0,0,0,0,0,0v539c0,50.3,40.78,91.08,91.08,91.08l0,0h163.82
	c50.3,0,91.08-40.78,91.08-91.08l0,0v-318.32"/>
<path id="Path_3099" class="st2" d="M-184.21,1228.33c0,5.04-4.09,9.13-9.13,9.13s-9.13-4.09-9.13-9.13s4.09-9.13,9.13-9.13
	c0,0,0,0,0,0C-188.29,1219.2-184.21,1223.28-184.21,1228.33"/>
<circle id="Ellipse_41" class="st3" cx="-193.34" cy="1228.33" r="9.13"/>
<path id="Path_3100" class="st2" d="M1190.54,1210.84c0,5.04-4.09,9.13-9.13,9.13s-9.13-4.09-9.13-9.13c0-5.04,4.09-9.13,9.13-9.13
	C1186.45,1201.71,1190.54,1205.8,1190.54,1210.84C1190.54,1210.84,1190.54,1210.84,1190.54,1210.84"/>
<circle id="Ellipse_42" class="st1" cx="1181.41" cy="1210.84" r="9.13"/>
<path id="Path_3101" class="st4" d="M48.66,1486.39H-94.27c-41.03,0-74.3-33.27-74.3-74.3v-406.25c0-41.03,33.27-74.3,74.3-74.3l0,0
	H48.66c41.03,0,74.3,33.27,74.3,74.3c0,0,0,0,0,0v406.26C122.96,1453.12,89.7,1486.39,48.66,1486.39"/>
<g>
	<path id="Path_3102" class="st5" d="M258.27,107.22c-18.93,1.69-32.9,18.4-31.22,37.32c1.69,18.93,18.4,32.9,37.32,31.22
		c17.75-1.58,31.36-16.46,31.35-34.28C294.8,121.7,278.06,106.39,258.27,107.22 M258.27,158.64c-9.46-0.86-16.44-9.22-15.58-18.68
		c0.86-9.46,9.22-16.44,18.68-15.58c8.86,0.8,15.65,8.22,15.65,17.12C276.55,151.39,268.17,159.05,258.27,158.64"/>
	<path id="Path_3103" class="st5" d="M455,209.98c4.94,0.21,9.12-3.61,9.35-8.55V167.2c-0.06-3.11-1.82-5.93-4.58-7.35L276.54,60.39
		c-0.07-0.06-0.16-0.1-0.24-0.13c-11.39-5.88-24.93-5.83-36.28,0.11L56.76,159.86c-2.76,1.42-4.52,4.24-4.58,7.35v34.26
		c0.23,4.94,4.41,8.76,9.35,8.55h28.11v154.04c-19.78-0.83-36.51,14.47-37.46,34.24V424c0.23,4.94,4.41,8.77,9.35,8.56h393.46
		c4.94,0.21,9.11-3.61,9.35-8.55v-25.69c-0.95-19.77-17.68-35.07-37.46-34.24v-154.1H455z M445.65,398.32v17.16H70.92v-17.13
		c0.48-9.89,8.85-17.53,18.74-17.11h337.24c9.89-0.42,18.26,7.23,18.74,17.11 M108.4,210.01h37.46v154.04H108.4L108.4,210.01z
		 M164.6,210.01h56.21v154.04H164.6L164.6,210.01z M239.52,210.01h37.46v154.04h-37.46L239.52,210.01z M295.73,210.01h56.21v154.04
		h-56.21L295.73,210.01z M370.66,210.01h37.46v154.04h-37.46L370.66,210.01z M70.87,192.89v-20.81l178.39-96.85
		c5.57-2.91,12.21-2.93,17.8-0.06l178.54,96.91v20.81H70.87z"/>
</g>
<g id="Group_2385" transform="translate(85.673 242.527)">
	<g id="Group_2384">
		<g>
			<defs>
				<rect id="SVGID_1_" x="-203.97" y="905.51" width="190.98" height="22.8"/>
			</defs>
			<clipPath id="SVGID_00000174596843380800584190000011911481333227225241_">
				<use xlink:href="#SVGID_1_"  style="overflow:visible;"/>
			</clipPath>
			<g id="Group_2383" style="clip-path:url(#SVGID_00000174596843380800584190000011911481333227225241_);">
				<g id="Group_2382">
					<g id="Group_2381">
						<g>
							<defs>
								
									<rect id="SVGID_00000093892555067799887560000010018483096245214630_" x="-203.97" y="905.51" width="190.98" height="22.8"/>
							</defs>
							<clipPath id="SVGID_00000117673913430017216430000017782604236000898204_">
								<use xlink:href="#SVGID_00000093892555067799887560000010018483096245214630_"  style="overflow:visible;"/>
							</clipPath>
							<g id="Group_2380" style="clip-path:url(#SVGID_00000117673913430017216430000017782604236000898204_);">
								<text transform="matrix(1 0 0 1 -203.9657 920.2726)" style="font-family:'Metropolis-SemiBold'; font-size:20px;">Banking Assistance</text>
							</g>
						</g>
					</g>
				</g>
			</g>
		</g>
	</g>
</g>
<text transform="matrix(1 0 0 1 -147.7487 1210.6337)" style="fill:#727071; font-family:'Metropolis-Regular'; font-size:16px;">Banking plays an virtual </text>
<text transform="matrix(1 0 0 1 38.3444 1210.6337)" style="fill:#727071; font-family:'Metropolis-Regular'; font-size:16px;">r</text>
<text transform="matrix(1 0 0 1 44.2642 1210.6337)" style="fill:#727071; font-family:'Metropolis-Regular'; font-size:16px;">ole in</text>
<text transform="matrix(1 0 0 1 -147.7487 1233.0767)" style="fill:#727071; font-family:'Metropolis-Regular'; font-size:16px;">e</text>
<text transform="matrix(1 0 0 1 -138.2289 1233.0767)" style="fill:#727071; font-family:'Metropolis-Regular'; font-size:16px;">v</text>
<text transform="matrix(1 0 0 1 -129.7651 1233.0767)" style="fill:#727071; font-family:'Metropolis-Regular'; font-size:16px;">ery industr</text>
<text transform="matrix(1 0 0 1 -47.1589 1233.0767)" style="fill:#727071; font-family:'Metropolis-Regular'; font-size:16px; letter-spacing:-2;">y</text>
<text transform="matrix(1 0 0 1 -39.6711 1233.0767)" style="fill:#727071; font-family:'Metropolis-Regular'; font-size:16px;">, SO </text>
<text transform="matrix(1 0 0 1 -3.4477 1233.0767)" style="fill:#727071; font-family:'Metropolis-Regular'; font-size:16px;">w</text>
<text transform="matrix(1 0 0 1 9.4962 1233.0767)" style="fill:#727071; font-family:'Metropolis-Regular'; font-size:16px;">e as a</text>
<text transform="matrix(1 0 0 1 -147.7487 1255.5187)" style="fill:#727071; font-family:'Metropolis-Regular'; font-size:16px;">c</text>
<text transform="matrix(1 0 0 1 -139.2368 1255.5187)" style="fill:#727071; font-family:'Metropolis-Regular'; font-size:16px;">ompany Understand the</text>
<text transform="matrix(1 0 0 1 -147.7487 1277.9606)" style="fill:#727071; font-family:'Metropolis-Regular'; font-size:16px;">importance of this services, </text>
<text transform="matrix(1 0 0 1 67.1913 1277.9606)" style="fill:#727071; font-family:'Metropolis-Regular'; font-size:16px;">w</text>
<text transform="matrix(1 0 0 1 80.1192 1277.9606)" style="fill:#727071; font-family:'Metropolis-Regular'; font-size:16px;">e</text>
<text transform="matrix(1 0 0 1 -147.7487 1300.4026)" style="fill:#727071; font-family:'Metropolis-Regular'; font-size:16px;">posses a decade of </text>
<text transform="matrix(1 0 0 1 6.6166 1300.4026)" style="fill:#727071; font-family:'Metropolis-Regular'; font-size:16px;">w</text>
<text transform="matrix(1 0 0 1 19.6245 1300.4026)" style="fill:#727071; font-family:'Metropolis-Regular'; font-size:16px;">orking</text>
<text transform="matrix(1 0 0 1 -147.7487 1322.8457)" style="fill:#727071; font-family:'Metropolis-Regular'; font-size:16px;">experience in banking service.</text>
<text transform="matrix(1 0 0 1 -147.7487 1345.2866)" style="fill:#727071; font-family:'Metropolis-Regular'; font-size:16px;">Having the best specialists to</text>
<text transform="matrix(1 0 0 1 -147.7487 1367.7296)" style="fill:#727071; font-family:'Metropolis-Regular'; font-size:16px;">en</text>
<text transform="matrix(1 0 0 1 -128.757 1367.7296)" style="fill:#727071; font-family:'Metropolis-Regular'; font-size:16px;">c</text>
<text transform="matrix(1 0 0 1 -120.2451 1367.7296)" style="fill:#727071; font-family:'Metropolis-Regular'; font-size:16px;">ourage an raise a helping</text>
<text transform="matrix(1 0 0 1 -147.7487 1390.1716)" style="fill:#727071; font-family:'Metropolis-Regular'; font-size:16px;">hands to </text>
<text transform="matrix(1 0 0 1 -76.1976 1390.1716)" style="fill:#727071; font-family:'Metropolis-Regular'; font-size:16px;">w</text>
<text transform="matrix(1 0 0 1 -63.2697 1390.1716)" style="fill:#727071; font-family:'Metropolis-Regular'; font-size:16px;">ell established and</text>
<text transform="matrix(1 0 0 1 -147.7487 1412.6136)" style="fill:#727071; font-family:'Metropolis-Regular'; font-size:16px;">also the budding industry in</text>
<text transform="matrix(1 0 0 1 -147.7487 1435.0566)" style="fill:#727071; font-family:'Metropolis-Regular'; font-size:16px;">this flourishing markets</text>
<g id="Group_2395" transform="translate(0 0.001)">
	<g>
		<defs>
			<rect id="SVGID_00000029759692746753163200000012843429618913638031_" x="-203.97" y="905.51" width="1396" height="724.14"/>
		</defs>
		<clipPath id="SVGID_00000106149552223809660940000004516041452965591478_">
			<use xlink:href="#SVGID_00000029759692746753163200000012843429618913638031_"  style="overflow:visible;"/>
		</clipPath>
		<g id="Group_2394" style="clip-path:url(#SVGID_00000106149552223809660940000004516041452965591478_);">
			<path id="Path_3104" class="st4" d="M740.24,1486.38H597.3c-41.03,0-74.3-33.27-74.3-74.3c0,0,0,0,0,0v-406.25
				c0-41.03,33.27-74.3,74.3-74.3l0,0h142.93c41.03,0,74.3,33.27,74.3,74.3c0,0,0,0,0,0v406.26
				C814.54,1453.12,781.27,1486.39,740.24,1486.38L740.24,1486.38"/>
			<path id="Path_3105" class="st9" d="M699.34,1074.73c0.04-0.44-0.29-0.83-0.73-0.86c-0.44-0.04-0.83,0.29-0.86,0.73
				c-0.04,0.44,0.29,0.83,0.73,0.86c0,0,0,0,0,0h0.06c0.21,0,0.41-0.08,0.56-0.22C699.26,1075.12,699.34,1074.93,699.34,1074.73
				 M703.74,1074.73c0.27,2.87-1.84,5.4-4.71,5.67c-2.87,0.27-5.4-1.84-5.67-4.71c-0.27-2.87,1.84-5.4,4.71-5.67c0,0,0,0,0,0
				c0.16-0.02,0.32-0.02,0.48-0.02C701.29,1069.88,703.61,1071.99,703.74,1074.73 M698.7,1041.88h-0.3
				c-0.57-0.01-1.12,0.21-1.52,0.61c-0.38,0.38-0.57,0.91-0.5,1.45l2.17,18.47l2.17-18.47c0.07-0.53-0.12-1.07-0.5-1.45
				C699.82,1042.1,699.28,1041.88,698.7,1041.88L698.7,1041.88z M698.7,1037.87c1.79-0.01,3.51,0.69,4.78,1.95
				c1.2,1.19,1.8,2.87,1.61,4.56l-2.52,21.51c-0.43,2.22-2.58,3.66-4.8,3.23c-1.63-0.32-2.91-1.59-3.23-3.23l-2.55-21.5
				c-0.18-1.69,0.41-3.36,1.61-4.56c1.27-1.26,2.99-1.96,4.78-1.95L698.7,1037.87z M662.01,1072.31l5.43-8.58h-64.54v8.58H662.01z
				 M613.25,1059.71h9.4v-22.73h-9.4V1059.71z M637.68,1059.71h9.4v-47.95h-9.4V1059.71z M662.1,1059.71h7.88l1.52-2.42v-32.92
				h-9.41L662.1,1059.71z M686.52,1033.51l6.5-10.29c0.69-1.08,1.7-1.93,2.89-2.42v-21.64h-9.4L686.52,1033.51z M700.27,1025.24
				l34.11,53.97c0.38,0.55,0.38,1.28,0,1.83c-0.37,0.59-1.03,0.93-1.72,0.9h-68.22c-0.69,0.03-1.35-0.31-1.72-0.9
				c-0.38-0.55-0.38-1.28,0-1.83l34.11-53.97c0.64-0.95,1.92-1.2,2.87-0.57c0,0,0,0,0,0l0.01,0.01
				C699.93,1024.83,700.12,1025.02,700.27,1025.24 M658.92,1077.22l0.56-0.9h-58.77c-1.16,0.05-2.14-0.85-2.19-2.01v-12.59
				c0.06-1.16,1.04-2.05,2.19-2.01h8.15v-24.74c0.06-1.16,1.04-2.06,2.19-2.01h13.79c0.57,0,1.13,0.21,1.55,0.59
				c0.41,0.36,0.64,0.88,0.64,1.42v24.74h6.24v-49.96c0-0.54,0.24-1.06,0.64-1.42c0.43-0.38,0.98-0.59,1.56-0.59h13.79
				c0.57-0.01,1.13,0.2,1.56,0.59c0.41,0.36,0.64,0.88,0.64,1.42v49.96h6.24v-37.35c0-0.54,0.24-1.06,0.64-1.42
				c0.43-0.38,0.98-0.59,1.56-0.59h13.79c0.57,0,1.13,0.21,1.55,0.59c0.4,0.36,0.64,0.87,0.64,1.42v27.99l6.21-9.88v-43.32
				c0-0.54,0.24-1.06,0.64-1.42c0.43-0.38,0.98-0.59,1.55-0.59h13.79c0.57-0.01,1.13,0.2,1.56,0.59c0.41,0.36,0.64,0.88,0.64,1.42
				v23.39c1.55,0.38,2.9,1.34,3.76,2.69l34.11,54c1.14,1.77,1.14,4.05,0,5.83c-1.23,1.85-3.31,2.94-5.53,2.9h-68.22
				c-2.21,0.03-4.29-1.06-5.52-2.9c-1.14-1.77-1.14-4.05,0-5.82L658.92,1077.22z M616.31,1013.82l24.42-25.2
				c0.72-0.72,1.82-0.9,2.72-0.43l22.91,11.82l20.96-20.68h-5.31c-1.11,0.11-2.1-0.69-2.21-1.8c-0.11-1.11,0.69-2.1,1.8-2.21
				c0.02,0,0.03,0,0.05,0c0.12-0.01,0.24-0.01,0.37,0h10.34c1.16-0.05,2.14,0.85,2.2,2.01v9.46c-0.08,1.21-1.12,2.13-2.34,2.05
				c-1.1-0.07-1.98-0.95-2.05-2.05v-4.34l-21.75,21.45c-0.72,0.69-1.8,0.85-2.69,0.4l-22.88-11.81l-23.25,23.99
				c-0.84,0.83-2.17,0.9-3.1,0.17c-0.83-0.64-0.99-1.82-0.35-2.65l0,0c0.05-0.07,0.1-0.13,0.16-0.19L616.31,1013.82z"/>
			<g id="Group_2393" transform="translate(803.94 208.9)">
				<g id="Group_2392">
					<g>
						<defs>
							
								<rect id="SVGID_00000171680072276387973350000005237316372318281122_" x="-203.97" y="905.51" width="137.6" height="47.04"/>
						</defs>
						<clipPath id="SVGID_00000043422357837959018800000009604984148989374889_">
							<use xlink:href="#SVGID_00000171680072276387973350000005237316372318281122_"  style="overflow:visible;"/>
						</clipPath>
						<g id="Group_2391" style="clip-path:url(#SVGID_00000043422357837959018800000009604984148989374889_);">
							<g id="Group_2390">
								<g id="Group_2389">
									<g>
										<defs>
											
												<rect id="SVGID_00000054233533392175849570000012499267099117186741_" x="-203.97" y="905.51" width="137.6" height="47.04"/>
										</defs>
										<clipPath id="SVGID_00000036968205565828816010000012821105540310493097_">
											<use xlink:href="#SVGID_00000054233533392175849570000012499267099117186741_"  style="overflow:visible;"/>
										</clipPath>
										<g id="Group_2388" style="clip-path:url(#SVGID_00000036968205565828816010000012821105540310493097_);">
											<text transform="matrix(1 0 0 1 -203.9676 920.2717)" style="font-family:'Metropolis-SemiBold'; font-size:20px;">Business Risk</text>
											<text transform="matrix(1 0 0 1 -199.5225 944.5146)" style="font-family:'Metropolis-SemiBold'; font-size:20px;">Management</text>
										</g>
									</g>
								</g>
							</g>
						</g>
					</g>
				</g>
			</g>
		</g>
	</g>
</g>
<text transform="matrix(1 0 0 1 543.8304 1202.6816)" style="fill:#727071; font-family:'Metropolis-Regular'; font-size:16px;">Risk management be</text>
<text transform="matrix(1 0 0 1 704.516 1202.6816)" style="fill:#727071; font-family:'Metropolis-Regular'; font-size:16px;">c</text>
<text transform="matrix(1 0 0 1 713.0278 1202.6816)" style="fill:#727071; font-family:'Metropolis-Regular'; font-size:16px;">omes</text>
<text transform="matrix(1 0 0 1 543.8304 1225.1246)" style="fill:#727071; font-family:'Metropolis-Regular'; font-size:16px;">increasingly important for any</text>
<text transform="matrix(1 0 0 1 543.8304 1247.5667)" style="fill:#727071; font-family:'Metropolis-Regular'; font-size:16px;">business&apos; success when n</text>
<text transform="matrix(1 0 0 1 738.9789 1247.5667)" style="fill:#727071; font-family:'Metropolis-Regular'; font-size:16px;">e</text>
<text transform="matrix(1 0 0 1 748.1146 1247.5667)" style="fill:#727071; font-family:'Metropolis-Regular'; font-size:16px;">w</text>
<text transform="matrix(1 0 0 1 543.8304 1270.0087)" style="fill:#727071; font-family:'Metropolis-Regular'; font-size:16px;">opportunities arise. The</text>
<text transform="matrix(1 0 0 1 543.8304 1292.4507)" style="fill:#727071; font-family:'Metropolis-Regular'; font-size:16px;">dangers that </text>
<text transform="matrix(1 0 0 1 646.2448 1292.4507)" style="fill:#727071; font-family:'Metropolis-Regular'; font-size:16px;">c</text>
<text transform="matrix(1 0 0 1 654.7566 1292.4507)" style="fill:#727071; font-family:'Metropolis-Regular'; font-size:16px;">ome with</text>
<text transform="matrix(1 0 0 1 543.8304 1314.8936)" style="fill:#727071; font-family:'Metropolis-Regular'; font-size:16px;">operating a business are </text>
<text transform="matrix(1 0 0 1 736.8348 1314.8936)" style="fill:#727071; font-family:'Metropolis-Regular'; font-size:16px;">w</text>
<text transform="matrix(1 0 0 1 749.7627 1314.8936)" style="fill:#727071; font-family:'Metropolis-Regular'; font-size:16px;">ell</text>
<text transform="matrix(1 0 0 1 543.8304 1337.3347)" style="fill:#727071; font-family:'Metropolis-Regular'; font-size:16px;">understood by our team of</text>
<text transform="matrix(1 0 0 1 543.8304 1359.7776)" style="fill:#727071; font-family:'Metropolis-Regular'; font-size:16px;">p</text>
<text transform="matrix(1 0 0 1 554.0382 1359.7776)" style="fill:#727071; font-family:'Metropolis-Regular'; font-size:16px;">r</text>
<text transform="matrix(1 0 0 1 559.958 1359.7776)" style="fill:#727071; font-family:'Metropolis-Regular'; font-size:16px;">ofessionals, who can offer</text>
<text transform="matrix(1 0 0 1 543.8304 1382.2196)" style="fill:#727071; font-family:'Metropolis-Regular'; font-size:16px;">c</text>
<text transform="matrix(1 0 0 1 552.3423 1382.2196)" style="fill:#727071; font-family:'Metropolis-Regular'; font-size:16px;">omplete risk management</text>
<text transform="matrix(1 0 0 1 543.8304 1404.6616)" style="fill:#727071; font-family:'Metropolis-Regular'; font-size:16px;">solutions.</text>
<g id="Group_2400" transform="translate(0 0.001)">
	<g>
		<defs>
			<rect id="SVGID_00000086686305181400774090000016802657568296921529_" x="-203.97" y="905.51" width="1396" height="724.14"/>
		</defs>
		<clipPath id="SVGID_00000044880493419785159280000017789483920288466311_">
			<use xlink:href="#SVGID_00000086686305181400774090000016802657568296921529_"  style="overflow:visible;"/>
		</clipPath>
		<g id="Group_2399" style="clip-path:url(#SVGID_00000044880493419785159280000017789483920288466311_);">
			<path id="Path_3106" class="st5" d="M396.18,1192.47c-1.51-2.31-7.72-9.16-24.1-0.44l-28.89,15.38c-1.4,0.75-2.89,1.3-4.44,1.64
				c0.59-0.87,1.03-1.82,1.33-2.83c1.27-5.33-2.03-10.69-7.36-11.95c0,0,0,0,0,0l-0.1-0.02c-0.11-0.03-0.22-0.06-0.34-0.07
				c-7.84-1.49-15.56-3.58-23.08-6.25c-2.29-0.75-4.45-1.47-6.29-2.01c-7.39-2.19-14.08,0.52-19.65,3.47l-21.49,11.37l-2.35-3.79
				c-0.94-1.48-2.41-2.53-4.12-2.93c-1.74-0.45-3.58-0.24-5.18,0.58l-8.1,4.19c-2.98,1.39-4.27,4.94-2.88,7.93
				c0.09,0.2,0.2,0.39,0.31,0.57l23.83,38.47c0.93,1.48,2.41,2.53,4.11,2.93c0.6,0.15,1.22,0.23,1.84,0.23
				c1.16,0,2.31-0.27,3.34-0.81l8.1-4.19c1.54-0.77,2.7-2.13,3.21-3.77c0.49-1.6,0.26-3.32-0.63-4.74l-2.13-3.44l4.89-2.59
				l36.99,9.06c2.01,0.5,4.08,0.76,6.15,0.77c4.01,0,7.95-1.05,11.42-3.04l52.42-29.5c4.79-2.97,6.26-9.26,3.29-14.04
				c0,0,0,0,0-0.01l-0.01-0.01c-0.03-0.05-0.07-0.11-0.1-0.16L396.18,1192.47z M278.94,1238.92c-0.13,0.4-0.41,0.74-0.79,0.93
				l-8.11,4.19c-0.39,0.2-0.85,0.25-1.27,0.14c-0.42-0.1-0.79-0.36-1.02-0.72l-23.83-38.47c-0.21-0.35-0.27-0.77-0.14-1.17
				c0.12-0.41,0.41-0.75,0.79-0.94l8.11-4.19c0.4-0.2,0.85-0.25,1.28-0.14c0.42,0.1,0.79,0.35,1.02,0.72l20.45,33.02l3.38,5.45
				C279.01,1238.09,279.07,1238.52,278.94,1238.92 M390.31,1202.7l-52.41,29.49c-4.12,2.33-8.98,2.96-13.55,1.74l-38.03-9.3
				c-0.66-0.16-1.35-0.08-1.95,0.24l-5.77,3.04l-14.29-23.08l21.53-11.39c4.82-2.55,10.03-4.69,15.49-3.06
				c1.76,0.52,3.77,1.18,6.12,1.96c7.74,2.74,15.67,4.89,23.73,6.42c2.8,0.63,4.57,3.41,3.94,6.21c0,0,0,0,0,0l-0.01,0.04
				c-1.02,3.45-4.16,3.88-6.66,3.62c-4.26-0.8-8.3-1.85-12.58-2.97c-2.03-0.53-4.12-1.07-6.28-1.6c-1.32-0.36-2.7,0.36-3.15,1.65
				c-0.32,1.25,0.42,2.52,1.67,2.84l0.13,0.03c2.12,0.52,4.19,1.06,6.2,1.58c4.41,1.15,8.57,2.24,13.06,3.07
				c3.24,0.7,6.57,0.95,9.88,0.74c2.94-0.29,5.79-1.15,8.39-2.53l28.89-15.37c8.31-4.43,14.71-4.88,17.11-1.21
				c1.65,2.59,1,6.01-1.47,7.82L390.31,1202.7z M255.33,1206.63c0.18,1.48-0.88,2.81-2.35,2.99c0,0,0,0,0,0h-0.09
				c-1.52,0.26-2.97-0.73-3.28-2.23c-0.18-1.47,0.88-2.81,2.35-2.99h0.01l0.09-0.01C253.57,1204.13,255.02,1205.12,255.33,1206.63
				 M302.92,1183.42h64.76c1.36,0.06,2.51-1,2.57-2.36v-26.85c0-6.81-5.71-12.01-15.67-14.26c-4.23-0.96-8.52-1.62-12.85-1.96
				c6.79-3.58,10.95-10.72,10.71-18.39c0-10-6.57-16.2-17.14-16.2s-17.14,6.21-17.14,16.2c-0.24,7.66,3.9,14.78,10.67,18.37
				c-4.32,0.33-8.61,0.99-12.83,1.98c-10.09,2.37-15.65,7.43-15.65,14.26v26.88c0.06,1.36,1.21,2.41,2.57,2.35L302.92,1183.42z
				 M323.3,1119.59c0-10.01,7.52-11.51,12.01-11.51s12.01,1.49,12.01,11.51c0,8.36-5.38,15.16-12.01,15.16
				S323.3,1127.95,323.3,1119.59 M305.49,1154.2c0-5.73,6.41-8.44,11.79-9.7c11.86-2.76,24.2-2.76,36.06,0
				c4.39,1,11.77,3.58,11.77,9.7v24.53h-9.58v-18.35c-0.11-1.42-1.35-2.48-2.77-2.36c-1.26,0.1-2.27,1.1-2.37,2.36v18.35H320.2
				v-18.35c-0.18-1.42-1.47-2.43-2.89-2.25c-1.18,0.15-2.11,1.07-2.25,2.25v18.35h-9.58L305.49,1154.2z"/>
			<g id="Group_2398" transform="translate(438.134 395.465)">
				<g id="Group_2397">
					<g>
						<defs>
							
								<rect id="SVGID_00000008115633961172460110000001460771373346410632_" x="-203.97" y="905.51" width="168.06" height="22.8"/>
						</defs>
						<clipPath id="SVGID_00000042000738872032965700000004418316665771126146_">
							<use xlink:href="#SVGID_00000008115633961172460110000001460771373346410632_"  style="overflow:visible;"/>
						</clipPath>
						<g id="Group_2396" style="clip-path:url(#SVGID_00000042000738872032965700000004418316665771126146_);">
							<text transform="matrix(1 0 0 1 -203.9656 920.2716)" style="font-family:'Metropolis-SemiBold'; font-size:20px;">Digital Marketing</text>
						</g>
					</g>
				</g>
			</g>
		</g>
	</g>
</g>
<text transform="matrix(1 0 0 1 193.2574 1363.5726)" style="fill:#727071; font-family:'Metropolis-Regular'; font-size:16px;">W</text>
<text transform="matrix(1 0 0 1 209.6733 1363.5726)" style="fill:#727071; font-family:'Metropolis-Regular'; font-size:16px;">e also re</text>
<text transform="matrix(1 0 0 1 274.9999 1363.5726)" style="fill:#727071; font-family:'Metropolis-Regular'; font-size:16px;">c</text>
<text transform="matrix(1 0 0 1 283.5118 1363.5726)" style="fill:#727071; font-family:'Metropolis-Regular'; font-size:16px;">ognise that</text>
<text transform="matrix(1 0 0 1 193.2574 1386.0146)" style="fill:#727071; font-family:'Metropolis-Regular'; font-size:16px;">marketing is a crucial tactic</text>
<text transform="matrix(1 0 0 1 193.2574 1408.4565)" style="fill:#727071; font-family:'Metropolis-Regular'; font-size:16px;">that </text>
<text transform="matrix(1 0 0 1 228.377 1408.4565)" style="fill:#727071; font-family:'Metropolis-Regular'; font-size:16px;">c</text>
<text transform="matrix(1 0 0 1 236.8889 1408.4565)" style="fill:#727071; font-family:'Metropolis-Regular'; font-size:16px;">ompanies must use to</text>
<text transform="matrix(1 0 0 1 193.2574 1430.8987)" style="fill:#727071; font-family:'Metropolis-Regular'; font-size:16px;">ad</text>
<text transform="matrix(1 0 0 1 212.6331 1430.8987)" style="fill:#727071; font-family:'Metropolis-Regular'; font-size:16px;">v</text>
<text transform="matrix(1 0 0 1 221.0969 1430.8987)" style="fill:#727071; font-family:'Metropolis-Regular'; font-size:16px;">ertise and boost sales. </text>
<text transform="matrix(1 0 0 1 397.6694 1430.8987)" style="fill:#727071; font-family:'Metropolis-Regular'; font-size:16px;">W</text>
<text transform="matrix(1 0 0 1 414.0853 1430.8987)" style="fill:#727071; font-family:'Metropolis-Regular'; font-size:16px;">e</text>
<text transform="matrix(1 0 0 1 193.2574 1453.3416)" style="fill:#727071; font-family:'Metropolis-Regular'; font-size:16px;">offer </text>
<text transform="matrix(1 0 0 1 234.9207 1453.3416)" style="fill:#727071; font-family:'Metropolis-Regular'; font-size:16px;">c</text>
<text transform="matrix(1 0 0 1 243.4326 1453.3416)" style="fill:#727071; font-family:'Metropolis-Regular'; font-size:16px;">omprehensi</text>
<text transform="matrix(1 0 0 1 333.751 1453.3416)" style="fill:#727071; font-family:'Metropolis-Regular'; font-size:16px;">v</text>
<text transform="matrix(1 0 0 1 342.2148 1453.3416)" style="fill:#727071; font-family:'Metropolis-Regular'; font-size:16px;">e</text>
<text transform="matrix(1 0 0 1 193.2574 1475.7827)" style="fill:#727071; font-family:'Metropolis-Regular'; font-size:16px;">marketing support, f</text>
<text transform="matrix(1 0 0 1 349.4308 1475.7827)" style="fill:#727071; font-family:'Metropolis-Regular'; font-size:16px;">r</text>
<text transform="matrix(1 0 0 1 355.3506 1475.7827)" style="fill:#727071; font-family:'Metropolis-Regular'; font-size:16px;">om</text>
<text transform="matrix(1 0 0 1 193.2574 1498.2256)" style="fill:#727071; font-family:'Metropolis-Regular'; font-size:16px;">building </text>
<text transform="matrix(1 0 0 1 258.264 1498.2256)" style="fill:#727071; font-family:'Metropolis-Regular'; font-size:16px;">y</text>
<text transform="matrix(1 0 0 1 267.4477 1498.2256)" style="fill:#727071; font-family:'Metropolis-Regular'; font-size:16px;">our brand to making</text>
<text transform="matrix(1 0 0 1 193.2574 1520.6677)" style="fill:#727071; font-family:'Metropolis-Regular'; font-size:16px;">y</text>
<text transform="matrix(1 0 0 1 202.4412 1520.6677)" style="fill:#727071; font-family:'Metropolis-Regular'; font-size:16px;">ou the customers&apos; first</text>
<text transform="matrix(1 0 0 1 193.2574 1543.1096)" style="fill:#727071; font-family:'Metropolis-Regular'; font-size:16px;">choice.</text>
<g id="Group_2405" transform="translate(0 0.001)">
	<g>
		<defs>
			<rect id="SVGID_00000042015406608760076530000018124894620780224668_" x="-203.97" y="905.51" width="1396" height="724.14"/>
		</defs>
		<clipPath id="SVGID_00000035524663179013608960000002320932079862989223_">
			<use xlink:href="#SVGID_00000042015406608760076530000018124894620780224668_"  style="overflow:visible;"/>
		</clipPath>
		<g id="Group_2404" style="clip-path:url(#SVGID_00000035524663179013608960000002320932079862989223_);">
			<path id="Path_3107" class="st5" d="M1052.17,1198.47h-6.65v-29.79c-0.17-1.84-1.79-3.19-3.63-3.02
				c-1.61,0.15-2.88,1.42-3.02,3.02v29.79h-86.49v-60.8h27.68c1.68,0.16,3.17-1.07,3.33-2.75c0.16-1.68-1.07-3.17-2.75-3.33
				c-0.19-0.02-0.39-0.02-0.58,0h-31c-1.76-0.08-3.25,1.28-3.34,3.04v63.84h-6.64c-1.76-0.07-3.24,1.29-3.33,3.04v6.08
				c0,8.4,7.45,15.2,16.63,15.2h86.49c9.19,0,16.63-6.81,16.63-15.2v-6.08C1055.42,1199.76,1053.94,1198.4,1052.17,1198.47
				 M1048.85,1207.59c-0.25,5.26-4.71,9.34-9.97,9.12h-6.66v-3.04c-0.17-1.84-1.79-3.19-3.63-3.03c-1.61,0.15-2.88,1.42-3.03,3.03
				v3.04h-59.88v-3.04c-0.17-1.84-1.8-3.19-3.63-3.02c-1.6,0.15-2.88,1.42-3.02,3.02v3.04h-6.65c-5.27,0.22-9.72-3.85-9.98-9.12
				v-3.04h106.46L1048.85,1207.59z"/>
			<path id="Path_3108" class="st5" d="M1052.18,1104.23c1.02,0.01,2-0.44,2.66-1.22l9.97-12.16c1.02-1.21,0.86-3.02-0.35-4.04
				c0,0,0,0,0,0l-0.01-0.02c-0.09-0.07-0.19-0.15-0.29-0.21c-1.48-1-3.48-0.74-4.66,0.62l-9.97,12.16
				c-1.01,1.22-0.85,3.03,0.37,4.04l0,0c0.09,0.08,0.19,0.15,0.29,0.22C1050.77,1104.01,1051.47,1104.22,1052.18,1104.23
				L1052.18,1104.23z"/>
			<path id="Path_3109" class="st5" d="M1059.49,1115.17c0.66,0.78,1.64,1.23,2.66,1.22c0.71,0,1.41-0.21,2-0.62l13.3-9.12
				c1.34-0.85,1.73-2.63,0.88-3.96c0,0,0,0,0,0l0,0c-0.06-0.1-0.14-0.2-0.21-0.3c-1.17-1.35-3.17-1.62-4.66-0.61l-13.31,9.13
				c-1.34,0.85-1.73,2.63-0.88,3.96C1059.35,1114.98,1059.42,1115.07,1059.49,1115.17"/>
			<path id="Path_3110" class="st5" d="M1092.1,1121.86c-0.17-0.84-0.69-1.56-1.43-2c-0.77-0.46-1.68-0.62-2.56-0.44l-16.64,3.03
				c-1.73,0.08-3.08,1.54-3,3.28v0.07c0.28,1.75,1.9,2.96,3.66,2.73h0.67l16.63-3.04c0.87-0.13,1.66-0.6,2.18-1.3
				C1092.12,1123.52,1092.3,1122.67,1092.1,1121.86"/>
			<path id="Path_3111" class="st5" d="M1049.25,1121.56c-1.01-1.48-2.97-1.97-4.56-1.13c-1.45,0.69-2.07,2.43-1.38,3.89
				c0.04,0.1,0.09,0.19,0.15,0.28l14.67,23.19l-53.23,18.24h-0.49l-8.65,4.56l-5.75,3.04c-1.56,0.81-3.36,1.03-5.06,0.61
				c-1.66-0.39-3.1-1.4-4.03-2.83l-6.65-10.52c-1.56-2.8-0.56-6.33,2.24-7.89l0.01-0.01c0.08-0.04,0.16-0.09,0.25-0.13l11.51-6.08
				l8.32,13.16c1.1,1.6,3.29,2,4.89,0.9c0.35-0.24,0.65-0.55,0.9-0.9c0.6-0.93,0.6-2.12,0-3.05l-8.58-13.56l41.76-31.47l1.37,2.16
				c1.01,1.48,2.98,1.97,4.56,1.12c1.45-0.69,2.07-2.43,1.38-3.89c-0.05-0.1-0.1-0.19-0.16-0.28l-3.33-5.26
				c-0.52-0.79-1.36-1.32-2.3-1.46c-0.96-0.17-1.94,0.07-2.73,0.64l-46.57,35.08l-14.17,7.48c-5.11,2.5-7.69,8.3-6.12,13.77
				l-3.33,1.72c-3.41,1.67-5.39,5.33-4.92,9.1c0.66,3.8,3.55,6.81,7.32,7.62c2.56,0.61,5.25,0.29,7.59-0.92l3.33-1.72
				c1.64,1.53,3.64,2.62,5.82,3.16c1.14,0.29,2.32,0.44,3.49,0.43c2.32,0.01,4.61-0.56,6.66-1.64l2.89-1.52l6.65,10.55
				c3.02,4.42,8.88,5.86,13.6,3.35c2.24-1.14,3.92-3.14,4.66-5.54c0.69-2.34,0.33-4.87-0.98-6.93l-6.08-9.64l49.91-17.11
				c0.89-0.29,1.61-0.96,1.97-1.82c0.33-0.83,0.24-1.77-0.23-2.52L1049.25,1121.56z M970.68,1173.51c-0.78,0.41-1.68,0.51-2.53,0.31
				c-0.83-0.19-1.56-0.69-2.03-1.4c-0.44-0.69-0.56-1.53-0.33-2.31c0.25-0.81,0.81-1.47,1.57-1.85l2.89-1.52l3.32,5.25
				L970.68,1173.51z M1014.46,1182.02c0.44,0.68,0.56,1.53,0.33,2.31c-0.26,0.79-0.82,1.45-1.57,1.82
				c-1.57,0.83-3.51,0.36-4.52-1.09l-6.66-10.55l5.52-2.89h0.27L1014.46,1182.02z"/>
			<g id="Group_2403" transform="translate(1126.111 370.716)">
				<g id="Group_2402">
					<g>
						<defs>
							
								<rect id="SVGID_00000029753593047250188820000004812032063502082490_" x="-203.97" y="905.51" width="183.65" height="47.04"/>
						</defs>
						<clipPath id="SVGID_00000071549901954749594750000002410137988810551212_">
							<use xlink:href="#SVGID_00000029753593047250188820000004812032063502082490_"  style="overflow:visible;"/>
						</clipPath>
						<g id="Group_2401" style="clip-path:url(#SVGID_00000071549901954749594750000002410137988810551212_);">
							<text transform="matrix(1 0 0 1 -203.9646 920.2716)" style="font-family:'Metropolis-SemiBold'; font-size:20px;">Added Assistance</text>
							<text transform="matrix(1 0 0 1 -153.6595 944.5157)" style="font-family:'Metropolis-SemiBold'; font-size:20px;">Services</text>
						</g>
					</g>
				</g>
			</g>
		</g>
	</g>
</g>
<text transform="matrix(1 0 0 1 889.0244 1352.3016)" style="fill:#727071; font-family:'Metropolis-Regular'; font-size:16px;">To meet the different</text>
<text transform="matrix(1 0 0 1 889.0244 1374.7437)" style="fill:#727071; font-family:'Metropolis-Regular'; font-size:16px;">demands of businesses in the</text>
<text transform="matrix(1 0 0 1 889.0244 1397.1855)" style="fill:#727071; font-family:'Metropolis-Regular'; font-size:16px;">UAE, </text>
<text transform="matrix(1 0 0 1 931.9358 1397.1855)" style="fill:#727071; font-family:'Metropolis-Regular'; font-size:16px;">w</text>
<text transform="matrix(1 0 0 1 944.8636 1397.1855)" style="fill:#727071; font-family:'Metropolis-Regular'; font-size:16px;">e p</text>
<text transform="matrix(1 0 0 1 969.2311 1397.1855)" style="fill:#727071; font-family:'Metropolis-Regular'; font-size:16px;">r</text>
<text transform="matrix(1 0 0 1 975.1509 1397.1855)" style="fill:#727071; font-family:'Metropolis-Regular'; font-size:16px;">o</text>
<text transform="matrix(1 0 0 1 984.9269 1397.1855)" style="fill:#727071; font-family:'Metropolis-Regular'; font-size:16px;">vide a full range</text>
<text transform="matrix(1 0 0 1 889.0244 1419.6277)" style="fill:#727071; font-family:'Metropolis-Regular'; font-size:16px;">of auxiliary support services.</text>
<text transform="matrix(1 0 0 1 889.0244 1442.0706)" style="fill:#727071; font-family:'Metropolis-Regular'; font-size:16px;">W</text>
<text transform="matrix(1 0 0 1 905.4403 1442.0706)" style="fill:#727071; font-family:'Metropolis-Regular'; font-size:16px;">e realise that e</text>
<text transform="matrix(1 0 0 1 1018.4301 1442.0706)" style="fill:#727071; font-family:'Metropolis-Regular'; font-size:16px;">v</text>
<text transform="matrix(1 0 0 1 1026.8938 1442.0706)" style="fill:#727071; font-family:'Metropolis-Regular'; font-size:16px;">ery business</text>
<text transform="matrix(1 0 0 1 889.0244 1464.5127)" style="fill:#727071; font-family:'Metropolis-Regular'; font-size:16px;">needs more than just the most</text>
<text transform="matrix(1 0 0 1 889.0244 1486.9546)" style="fill:#727071; font-family:'Metropolis-Regular'; font-size:16px;">basic services, so </text>
<text transform="matrix(1 0 0 1 1027.1494 1486.9546)" style="fill:#727071; font-family:'Metropolis-Regular'; font-size:16px;">w</text>
<text transform="matrix(1 0 0 1 1040.0773 1486.9546)" style="fill:#727071; font-family:'Metropolis-Regular'; font-size:16px;">e offer a</text>
<text transform="matrix(1 0 0 1 889.0244 1509.3967)" style="fill:#727071; font-family:'Metropolis-Regular'; font-size:16px;">v</text>
<text transform="matrix(1 0 0 1 897.4082 1509.3967)" style="fill:#727071; font-family:'Metropolis-Regular'; font-size:16px;">ariety of additional support</text>
<text transform="matrix(1 0 0 1 889.0244 1531.8386)" style="fill:#727071; font-family:'Metropolis-Regular'; font-size:16px;">services to help our clients in a</text>
<text transform="matrix(1 0 0 1 889.0244 1554.2817)" style="fill:#727071; font-family:'Metropolis-Regular'; font-size:16px;">v</text>
<text transform="matrix(1 0 0 1 897.4082 1554.2817)" style="fill:#727071; font-family:'Metropolis-Regular'; font-size:16px;">ariety of areas.</text>
</svg>
